<mxfile host="Electron" modified="2024-04-23T16:01:56.248Z" agent="Mozilla/5.0 (X11; Linux x86_64) AppleWebKit/537.36 (KHTML, like Gecko) draw.io/24.2.5 Chrome/120.0.6099.109 Electron/28.1.0 Safari/537.36" etag="RYv8pK0sWgYH-Xv72XV4" version="24.2.5" type="device">
  <diagram name="Page-1" id="MQeDtHxWPEZP0RUyZBZf">
    <mxGraphModel dx="1434" dy="838" grid="1" gridSize="10" guides="1" tooltips="1" connect="1" arrows="1" fold="1" page="1" pageScale="1" pageWidth="850" pageHeight="1100" math="0" shadow="0">
      <root>
        <mxCell id="0" />
        <mxCell id="1" parent="0" />
        <mxCell id="q6ImT6MUZ9S3Hd5mE19m-1" style="edgeStyle=orthogonalEdgeStyle;rounded=0;orthogonalLoop=1;jettySize=auto;html=1;entryX=0;entryY=0.5;entryDx=0;entryDy=0;strokeWidth=2;fontStyle=1" edge="1" parent="1" source="q6ImT6MUZ9S3Hd5mE19m-2" target="q6ImT6MUZ9S3Hd5mE19m-7">
          <mxGeometry relative="1" as="geometry" />
        </mxCell>
        <mxCell id="q6ImT6MUZ9S3Hd5mE19m-2" value="Data scraping" style="shape=process;whiteSpace=wrap;html=1;backgroundOutline=1;strokeWidth=2;fontStyle=1;fillColor=#fff2cc;strokeColor=#d6b656;" vertex="1" parent="1">
          <mxGeometry x="80" y="280" width="120" height="60" as="geometry" />
        </mxCell>
        <mxCell id="q6ImT6MUZ9S3Hd5mE19m-3" style="edgeStyle=orthogonalEdgeStyle;rounded=0;orthogonalLoop=1;jettySize=auto;html=1;entryX=0;entryY=0.5;entryDx=0;entryDy=0;strokeWidth=2;fontStyle=1;fontSize=12;" edge="1" parent="1" source="q6ImT6MUZ9S3Hd5mE19m-5" target="q6ImT6MUZ9S3Hd5mE19m-10">
          <mxGeometry relative="1" as="geometry" />
        </mxCell>
        <mxCell id="q6ImT6MUZ9S3Hd5mE19m-4" style="edgeStyle=orthogonalEdgeStyle;rounded=0;orthogonalLoop=1;jettySize=auto;html=1;exitX=0.145;exitY=1;exitDx=0;exitDy=-4.35;exitPerimeter=0;entryX=0.25;entryY=1;entryDx=0;entryDy=0;strokeWidth=2;fontStyle=1" edge="1" parent="1" source="q6ImT6MUZ9S3Hd5mE19m-5" target="q6ImT6MUZ9S3Hd5mE19m-2">
          <mxGeometry relative="1" as="geometry">
            <Array as="points">
              <mxPoint x="410" y="356" />
              <mxPoint x="410" y="400" />
              <mxPoint x="110" y="400" />
            </Array>
          </mxGeometry>
        </mxCell>
        <mxCell id="q6ImT6MUZ9S3Hd5mE19m-5" value="&lt;font style=&quot;font-size: 16px;&quot;&gt;&lt;span&gt;Images&lt;/span&gt;&lt;/font&gt;" style="shape=cylinder3;whiteSpace=wrap;html=1;boundedLbl=1;backgroundOutline=1;size=15;strokeWidth=2;fontStyle=1;fillColor=#e1d5e7;strokeColor=#9673a6;" vertex="1" parent="1">
          <mxGeometry x="400" y="260" width="80" height="100" as="geometry" />
        </mxCell>
        <mxCell id="q6ImT6MUZ9S3Hd5mE19m-6" style="edgeStyle=orthogonalEdgeStyle;rounded=0;orthogonalLoop=1;jettySize=auto;html=1;entryX=0.75;entryY=1;entryDx=0;entryDy=0;exitX=0.5;exitY=1;exitDx=0;exitDy=0;strokeWidth=2;fontStyle=1" edge="1" parent="1" source="q6ImT6MUZ9S3Hd5mE19m-7" target="q6ImT6MUZ9S3Hd5mE19m-2">
          <mxGeometry relative="1" as="geometry">
            <Array as="points">
              <mxPoint x="300" y="380" />
              <mxPoint x="170" y="380" />
            </Array>
          </mxGeometry>
        </mxCell>
        <mxCell id="q6ImT6MUZ9S3Hd5mE19m-7" value="Data cleaning" style="shape=process;whiteSpace=wrap;html=1;backgroundOutline=1;strokeWidth=2;fontStyle=1;fillColor=#f8cecc;strokeColor=#b85450;" vertex="1" parent="1">
          <mxGeometry x="240" y="280" width="120" height="60" as="geometry" />
        </mxCell>
        <mxCell id="q6ImT6MUZ9S3Hd5mE19m-8" style="edgeStyle=orthogonalEdgeStyle;rounded=0;orthogonalLoop=1;jettySize=auto;html=1;entryX=0;entryY=0.5;entryDx=0;entryDy=0;entryPerimeter=0;strokeWidth=2;fontStyle=1" edge="1" parent="1" source="q6ImT6MUZ9S3Hd5mE19m-7" target="q6ImT6MUZ9S3Hd5mE19m-5">
          <mxGeometry relative="1" as="geometry" />
        </mxCell>
        <mxCell id="q6ImT6MUZ9S3Hd5mE19m-9" style="edgeStyle=orthogonalEdgeStyle;rounded=0;orthogonalLoop=1;jettySize=auto;html=1;entryX=0;entryY=0.5;entryDx=0;entryDy=0;strokeWidth=2;fontStyle=1;fontSize=12;" edge="1" parent="1" source="q6ImT6MUZ9S3Hd5mE19m-10" target="q6ImT6MUZ9S3Hd5mE19m-12">
          <mxGeometry relative="1" as="geometry" />
        </mxCell>
        <mxCell id="q6ImT6MUZ9S3Hd5mE19m-10" value="Training model" style="shape=process;whiteSpace=wrap;html=1;backgroundOutline=1;strokeWidth=2;fontStyle=1;fontSize=12;fillColor=#bac8d3;strokeColor=#23445d;" vertex="1" parent="1">
          <mxGeometry x="520" y="280" width="120" height="60" as="geometry" />
        </mxCell>
        <mxCell id="q6ImT6MUZ9S3Hd5mE19m-11" style="edgeStyle=orthogonalEdgeStyle;rounded=0;orthogonalLoop=1;jettySize=auto;html=1;entryX=0;entryY=0.5;entryDx=0;entryDy=0;strokeWidth=2;" edge="1" parent="1" source="q6ImT6MUZ9S3Hd5mE19m-12" target="q6ImT6MUZ9S3Hd5mE19m-21">
          <mxGeometry relative="1" as="geometry" />
        </mxCell>
        <mxCell id="q6ImT6MUZ9S3Hd5mE19m-12" value="Inference Model" style="shape=process;whiteSpace=wrap;html=1;backgroundOutline=1;strokeWidth=2;fontStyle=1;fontSize=12;fillColor=#b1ddf0;strokeColor=#10739e;" vertex="1" parent="1">
          <mxGeometry x="680" y="280" width="120" height="60" as="geometry" />
        </mxCell>
        <mxCell id="q6ImT6MUZ9S3Hd5mE19m-13" style="edgeStyle=orthogonalEdgeStyle;rounded=0;orthogonalLoop=1;jettySize=auto;html=1;entryX=0.5;entryY=0;entryDx=0;entryDy=0;strokeWidth=2;fontStyle=1;fontSize=12;" edge="1" parent="1" source="q6ImT6MUZ9S3Hd5mE19m-14" target="q6ImT6MUZ9S3Hd5mE19m-17">
          <mxGeometry relative="1" as="geometry" />
        </mxCell>
        <mxCell id="q6ImT6MUZ9S3Hd5mE19m-14" value="Artifacts" style="shape=note;whiteSpace=wrap;html=1;backgroundOutline=1;darkOpacity=0.05;strokeWidth=2;fontStyle=1;fontSize=12;fillColor=#fff2cc;gradientColor=#ffd966;strokeColor=#d6b656;" vertex="1" parent="1">
          <mxGeometry x="545" y="370" width="70" height="80" as="geometry" />
        </mxCell>
        <mxCell id="q6ImT6MUZ9S3Hd5mE19m-15" style="edgeStyle=orthogonalEdgeStyle;rounded=0;orthogonalLoop=1;jettySize=auto;html=1;entryX=0;entryY=0.75;entryDx=0;entryDy=0;exitX=0;exitY=0.25;exitDx=0;exitDy=0;strokeWidth=2;fontStyle=1;fontSize=12;" edge="1" parent="1" source="q6ImT6MUZ9S3Hd5mE19m-17" target="q6ImT6MUZ9S3Hd5mE19m-10">
          <mxGeometry relative="1" as="geometry">
            <Array as="points">
              <mxPoint x="520" y="500" />
              <mxPoint x="500" y="500" />
              <mxPoint x="500" y="325" />
            </Array>
          </mxGeometry>
        </mxCell>
        <mxCell id="q6ImT6MUZ9S3Hd5mE19m-16" value="&lt;span style=&quot;font-size: 12px;&quot;&gt;Better&amp;nbsp;&lt;/span&gt;&lt;div style=&quot;font-size: 12px;&quot;&gt;&lt;span style=&quot;font-size: 12px;&quot;&gt;hyperparameters&lt;/span&gt;&lt;/div&gt;" style="edgeLabel;html=1;align=center;verticalAlign=middle;resizable=0;points=[];rotation=90;fontSize=12;fontStyle=1" vertex="1" connectable="0" parent="q6ImT6MUZ9S3Hd5mE19m-15">
          <mxGeometry x="0.003" y="-1" relative="1" as="geometry">
            <mxPoint x="19" y="-15" as="offset" />
          </mxGeometry>
        </mxCell>
        <mxCell id="q6ImT6MUZ9S3Hd5mE19m-17" value="MLflow" style="shape=process;whiteSpace=wrap;html=1;backgroundOutline=1;strokeWidth=2;fontStyle=1;fontSize=12;fillColor=#f5f5f5;strokeColor=#666666;fontColor=#333333;" vertex="1" parent="1">
          <mxGeometry x="520" y="480" width="120" height="60" as="geometry" />
        </mxCell>
        <mxCell id="q6ImT6MUZ9S3Hd5mE19m-18" style="edgeStyle=orthogonalEdgeStyle;rounded=0;orthogonalLoop=1;jettySize=auto;html=1;entryX=0.5;entryY=0;entryDx=0;entryDy=0;entryPerimeter=0;strokeWidth=2;fontStyle=1;fontSize=12;" edge="1" parent="1" source="q6ImT6MUZ9S3Hd5mE19m-10" target="q6ImT6MUZ9S3Hd5mE19m-14">
          <mxGeometry relative="1" as="geometry" />
        </mxCell>
        <mxCell id="q6ImT6MUZ9S3Hd5mE19m-19" style="edgeStyle=orthogonalEdgeStyle;rounded=0;orthogonalLoop=1;jettySize=auto;html=1;exitX=0;exitY=0.75;exitDx=0;exitDy=0;entryX=0.855;entryY=1;entryDx=0;entryDy=-4.35;entryPerimeter=0;strokeWidth=2;fontStyle=1;fontSize=12;" edge="1" parent="1" source="q6ImT6MUZ9S3Hd5mE19m-17" target="q6ImT6MUZ9S3Hd5mE19m-5">
          <mxGeometry relative="1" as="geometry" />
        </mxCell>
        <mxCell id="q6ImT6MUZ9S3Hd5mE19m-20" value="¿More data?&lt;div&gt;¿Remove data?&lt;/div&gt;" style="edgeLabel;html=1;align=center;verticalAlign=middle;resizable=0;points=[];fontStyle=1" vertex="1" connectable="0" parent="q6ImT6MUZ9S3Hd5mE19m-19">
          <mxGeometry x="0.3567" y="-2" relative="1" as="geometry">
            <mxPoint x="-45" y="13" as="offset" />
          </mxGeometry>
        </mxCell>
        <mxCell id="q6ImT6MUZ9S3Hd5mE19m-21" value="" style="shape=image;verticalLabelPosition=bottom;labelBackgroundColor=default;verticalAlign=top;aspect=fixed;imageAspect=0;image=data:image/png,iVBORw0KGgoAAAANSUhEUgAAAlIAAAFfCAYAAACFqSIwAAAABHNCSVQICAgIfAhkiAAAABl0RVh0U29mdHdhcmUAZ25vbWUtc2NyZWVuc2hvdO8Dvz4AAAAmdEVYdENyZWF0aW9uIFRpbWUAbWFyIDIzIGFiciAyMDI0IDE3OjU3OjA58s9rWwAAIABJREFUeJzs3Xd4FNXewPHvlK3pjRJCr9JFiqLAtVyxdxGx66tiA8UGFsSuqFexYMfeEBVUUFAEBBUVaSK9BkggvW6d8v6xSQSyG5LNboqez/PwkJ3ZmTm7M3Pmt6dKpmmaCIIgCIIgCHUmN3YCBEEQBEEQmisRSAmCIAiCIIRJBFKCIAiCIAhhEoGUIAiCIAhCmEQgJQiCIAiCECYRSAmCIAiCIIRJBFKCIAiCIAhhEoGUIAiCIAhCmEQgJQiCIAiCECYRSAmCIAiCIIRJBFKCIAiCIAhhEoGUIAiCIAhCmEQgJQiCIAiCECYRSAmCIAiCIIRJBFKCIAiCIAhhEoGUIAiCIAhCmEQgJQiCIAiCECYRSAmCIAiCIIRJBFKCIAiCIAhhEoGUIAiCIAhCmEQgJQiCIAiCECYRSAmCIAiCIIRJBFKCIAiCIAhhEoGUIAiCIAhCmEQgJQiCIAiCECYRSAmCIAiCIIRJBFKCIAiCIAhhEoGUIAiCIAhCmEQgJQiCIAiCECYRSAmCIAiCIIRJBFKCIAiCIAhhEoGUIAiCIAhCmEQgJQiCIAiCECa1sRMQLYZhVP1tmiaSJFX9X/lPEARBEAShPv5RgZSmaWiaht/vx+1243K5KCwsRNd1FEXBYrFgt9uJjY0lJiYGu92OxWJp7GQLgiAIgtBM/SMCqcrAyePx4PP58Hq9lJWVkZeXR3Z2NoZhIMsyVquVmJgYHA4Hdrud+Ph4kpKSSElJwW63N/bHEARBEAShmZFM0zQbOxH1UV5eTmlpKZqm4Xa7WbduHZs3b6aoqAi3242maRiGgSRJKIqCzWYjJiaGNm3a0K5dO5xOJ7GxsaSnp5OWloYsi2ZjgiAIgiDUTrMOpPLy83GVl2MYBqtXr+a7775DRyG5UzdiU1sSm9oS0zTxFBdQmpNN/vaNeMvLqra3WCwceeSRdO3aFUVR6NChAx06dGi8DyQIQjWB6noNh0OUGgtNS2FhEUlJiY2dDKGRNctAStd18vPz8Xg87MvJYcW6jRRLVlK79aFVh04k2FTiFXCqgQbmZRoUalCqmeRnbidn/Spyt2ygLDcbQ9dIT0+nd+/epKamkp6eTufOnbFarY39MQVBAKY8+ASZmXt44fkniYmJaezkCAIAe/ZkcfmVY7nqyku47NKLGjs5QiNqdoGUrusUFRXhcrnYuSeLraUaSqv2JKS1IN2hkG6XSbVKqDKYJpgE/hX7THa5DXa5TUzDwF2QQ/aff5D5x8+4CnNJSEigd+/edO7cmVatWtGpUycRTAlCI3v9jXd4+ZUZAPTq2YOXXnya+Pi4Rk6V8G9XXFLClVfeyK7M3QDcdOP/cc3VlzVyqoTGokyZMmVKYyeitgzDoLi4GLfbQ3ZRCZlKItaMzqQkJdItTqaDUyFeldBN0EwTvyHhN8BvgixJxKgSpZqJx5SwOGNJyOhIfOsMPEX5FO7PIj8/n5iYGKxWK6qqEhcXJ4ZJEIRG8u38hUx9alrV69zcPH7+5TdOPGGEqOYTGo3f72fcrRPZuHFz1bLff1+JrhsMGjSgEVMmNJZmFUjl5uaSm5uLF5k9zlaYccnE2CwcESuTZpMxTQm/aeI3QTNAM8FnUhVMGaaJLEG+P7A/WVFwJqWS1K4T5fl5FOdkkZ2VRatWrdB1neTkZGw2W+N+aEH4F1q9+k/uuOs+dF0/aHl+fgFLl/3CSSeOwOl0NFLqhH+zKQ8+wY8//lxt+cpVa/B4vBw9ZGAjpEpoTM1m+IPS0lJ++fU30tPTKVIT8VnsKJJER0egLZTHAMMwA1V5pokBGAdU7ekVr/VDdyxJxKS1puepF7Dms1KKszJZs2YNxxxzDLt27aJXr17NolRq0aKluN3uasvbd2hHr549GiFFkWMYBjM/nc2sz+aQlbWPtLQUTj3lJK6+6tJaV7/mFxTy+edf8ssvv7NzVyalpWVYLBZSU5Pp0b0bgwcP4JyzT0dVVX755Tdee/0dtm7bgdPpYPCgAdxy8/W0aJEa5U/aPEX6+9q9ey+33X4PPp8/6Pr27dridDrrk+Qma+myX3C5XNWWZ2S0afb38T/Bq6+9xdx5C4Kus9vt9O3bq4FTFDn/5GdItDWLNlKapjF//nxsNhtGfArlrbthqjYy7BKtbVJVsFQZOBmYgb9NMKUDlptQopns8wY/TsH2Tfzx0aug+RgwYABdunShX79+pKSkNNyHDdMpp51PTk5eteWjRp3LxLtubYQURc6rr73Fq6+9XW35iSeM4KmpDx12+yU//sS99z2My1U9k6gUFxfLooVf8cfKNYy94TYOvS1at27Jp5+8I0pBDvH7ilUR/b4ObXtyqEsvGcWt42/4xw5TctY5F7NnT1a15eecfTqT77+rEVIkVJo3bwH3TX406LrU1BSmPfs4RxzRvYFTFTn/5GdItDWLEqnNmzdTUlJCq/QMvLEpGKqNOEUi0SLhMU1MU0KvyMgNAgGUXvG/ccAyzTQp8IU+TnLHbnQecQobvpnFnj17aNu2LTt37ox6IKXrOtu27WDL1u0UFhbh9XpxOp1kZKTTt08vEhLio3r8pu7jjz8PunzhD0vIycmrseTj+4WLmXTPQ9WqiA414Mh+yLLMJzM/rxYUAGRn72fJjz9x6ikn1S3x/3CR/L78fj+333Ff0CBKURQm3n0r5593Vr3SKwjhWLlyDQ8+PDXouq5dO/P8c0/QsmWLBk6V0FQ0+UDK7/ezatUqEhMTMRQFX3waEpBoAZ9hBgImTAyjohpPkv6uwjNN9Io8XjehRAu0mQpJkmg3aBj7/lzBvn17cLlclJSUUF5eHpVu11u2bOOjjz9j0aKlFJeUBH2PLMsMHjSAK68Yw+DBR0U8DU2dz+ejpLQ05PqCwsKQgVRpaRmPPf6/wwZRAAMH9gcCDZpDHqug4LD7+beJ5Pf1+hvvsnLlmmrLY2NjmPrkQ6LtidAo/H4/k+59CL+/elXzsUOH8MQTU4j5h1Y1C7XT5MvHs7KyKCsrQ1EUdEc8hmLBqgSCJrcJbgNcunTA3yYew8Stm1V/l2kmBT4Tn3HYw6FYbLToeSSarrNv3z4AiouLI/qZ8gsKuXvSFC66+Gpmz5kbMoiCQPug5b+uYOyNE7jzrsnsz8mNaFqaOqvVSocO7YKus9vttGubEXLb9z+YSVFR7c7dUUcdCUCP7l1Dvqdbt9Dr/q0i+X1desmoam0x0tNb8daMl0QQJdTLjLfeZ8DAEQf9O3bYyFpta7FYeHDKpGodj0aNOpdpzz0hgiihaQdSpmmSmZmJ2+1GURR8zgQAVCS8JpRr4NEDQZNbB48Bbh1cmolbM3HpUKpBuR6o3qsNSZZJbt8FW1wi+/fvBwLT0ETKij9Wc8EFl/Pdd4vqvO3CH5ZwyaXXsnbtXxFLT3Mw8a5bq2Visiwz4bYba2yDs3jJsqDLHQ47D06ZxMLv5vDVlx/z4JRJdOvaGYDrrruKVq1aVtvmtFP/y6CBR9bjU/wzRfL7io+P4+Xp/6NPn54A9OnTk3fffoXOnTpGJK3Cv1dW9r56bX/0kIE8P+1J7HY7sixzx+23MPGuW/+xbfWEumnSVXt+v59du3ahqiqyLKPbYoFAWyePIWEagb8rG5JDoAovsCTQCD0cjsRk4lq0piRnD0DQngzhWLr0Z+64a3LQIuLaKigo5ONPPmvWvUPqatCgAXw+6z2+nvste7OySUtNZeTJJ9ClS6eQ2xQVFbNly7ag6668YgxnnnEKAElJibRJb121LiU5ic8+fZc5X85j69ZtOBxOhgw5iuOOPTqyH+ofItLfV2xsDNNfeob33vu4Tr0yBaEm2Vn1C6QABg08khefn0p5eTnDhg2NQKqEf4omHUj5fD727NlDSkoKkiRhqBYgMC6UbpgYEphmYGiCg4Om+g1XYI2Jx5mQRMH2jQBVEx/X59fHps1bmXjPg/UKogB69uz+r+y907p1S679vytq/f6aqkCPGtC/xm0dDjujLzqv1sf6t4v09xXjdDL2+qsjtj9ByIpAIAUwYEC/iOxH+Gdp0oGUpmkUFBT83WuuYjynyp54YRc5HYZisWBxxFT1RjJNs16BlN/v5777HsHt9oR8z8Cj+jP6ovPp178P8XGxFBQW8dtvf/DxJ5+zYcMmAFq2bMG0Z5/AbhejOh9OYWFRyHViihGhqVKVJp0lN0umaZK9b39jJ0P4B2vSd61hGJSVlVX1upIrBtpsCKrNjt0RaEQoyzKKooS9rw8/msW27TuCrpMkidtuvZFLLxl10PKWLdI484xTOP20k/lk5he89vrbPP/cE6SkJIedjtooLCxi3V8byM8voKioGFmWSUxIoFu3znTr1iXsYHJvVjbr/9pIbm4ebo+XxMR4UlKS6de3d1RmT/f7ahjnooEGWM0vKGT9+o3s2ZOFy+XC6XTSokUqRw3oT2JiQp32Fa3zUskwDDZu3MLWbYEhOAzDIDk5ic6dO9KrZ4+oD0prGAYbNm5my5ZtFBYWIUkSyUlJdOvWme7du0bl+Hl5+axd+xf79u1H03XS0gLnJpoDrxYVFbPij1Xs3ZuNJEmkpaUyZPBRJCcnARAXHxuR45SUlLJm7Tp2Z+7B7fEEhlNp05revXtG5X47ULSv1UNt2LCJ1WvWUV5eTnx8PIMHDTiog0pBQSG+mvKDBhTJPKGpiua93NDPkdpq8oGU1+vF6/Vimiay1wWWhiqNMYmNDQx5YLFYwj75Pp+P99//JOT6O+8YV2O1iCzLXDz6fM4+67SoDQaZlbWP2XPmsvCHJezYsSvk+xITE7hkzIVcMubCWpeKzZu3gHff/4TNm7cGXS/LMv369Wb0Redz0okjgn7P993/CPO++a7a8s6dOvLpzLerXu/Zk8U99z5EUXExhQWhS6RGXXTlQa+/m/9FVYD6xeyvefiRp4Ju98P3Xx42s9N1nbnzFjDrsy/5668NQcdYkmWZIUMGcv21V9bY1i2a56XSzl2ZfPjhLL77blHI3qMpyUmMHn0BF48+v9o1WN/vK7+gkPff/4Qvv/omZCliamoK555zBmMuvqBWY6oFG1hw3C3Xc+UVYwDYuTOTF6e/zpIlPwUdGuPEE0Yw8e5bI/qjJStrHy9Nf53vvl+MpmkHrZNlmdNO/S+3jr+BxIT6PUw3btzMGzPe48cff652nMpjHTt0CDfccE2NPS7rKhrXarDzOOG2m6p+dG7cuJnHHv8f6/7acNB7hg0byoknDOfDj2ZRVFQUsueu2+1hwMAR1ZZ/9OGbdO/Wpep1bfOfUOqbJ+zPyeXU0y4Iuu9HHrqX0047udpyl8vNccNPCbrN3XeN56JRkW+6EI17uVIkniPR1KQDKVmWcTgclJWVYRgGqrsUX2x0S2Qq+T3uqkytPmNILfnxZ/ILCoOuGzCgHxeNOrdW+4lGELVt+w6mT3+TxUuWBb25D1VUVMxL09/gu+8X89z/HgvaW6uSx+Ph7olTWLrslxr3aRgGq1atZdWqtXTt2pn7772D3r171vmzAJS7XNUy1Ya0Zu06Hnp4ao0PEgh85l9++Y1ffvmNUaPO5e47xx9040fzvFTy+fy88OJrfPzJZ4cdZyu/oJCXpr/O5198yVNPPkzPnpEZvXnOl/N4+pkXD9srNi8vn9ffeIdPZ81m0sQJ/Pek/9T5WJXn5J13P+LlV94MOf0MBHrHbt+xkxlvvkhCfP0Hw120eCmTJz9GeZCpXyBwPXw9dz6//76S1NTwBv/VNI3nnn+Fjz/+DMMIXW5vGAZLl/3Cz7/8xu0Tbq5327aGuFYPtK+iim7xkmVMnDQl6Hk8okdXsrP3hXzoNqRI5QlNXbTu5cZ4joSjSffdVBSFuLg4ioqK0HUdS3lBYIjyKPN7Pfjd5bRq1QqAuLjw29T8+ONPIdfdMPbqRrtZNm3eykWjr2bR4qW1ygAPtHnzVm6bEHouNIC77n7gsBf/obZs2cbEex6scb9N1ddz53PtdeMPm2EeymG3H3QNRPu8QGCg0v+7bhwffDizVoOVVnK53KSkRuaHzAsvvsaDDz1Zp6FFioqKuXviA7zz7kd1Pt6GDZuYeM+DTHv+lVpdXzt27GL69DfqfJxD/fjjz9x19wMhg6gD7c/J5a/1G+t8DJ/Pz7jxd/Phh5/WGEQdSNd1pj41jU9nzanz8So1xLV6qH37c9i4aQsTJ4XOJ7pHsKStPiKVJzR10byXm8tzpEkHUqqq0rJlSwoKCigtLUXRvFjdoQevjBR/eRmKrpGSkoKqqiTUo7h9zdp1QZcnJSVyZP++Ye+3vrp368JR9eiBsmnzVt7/IHiV5cIflrDsp+V13qfFYuGJx6dgtVrCTldjWLxkGVMefCJoVUpN+vbtxc03XXvQsmieFwh0fLhl/F2sW7e+TvuVJImHpkyiZYu0sNNW6eNPPuettz8Ie/tpz7/Ct/MX1mmbrdt2sGDBD3Xa5ovZcykpCT2q/uHs35/DfZMfqVOwGo4HpjzO8l9XhLXt08+8wM5dmWFtG+1rNZhdO3fz4INP1Njm6Yge3cJOU6REMk9oyqJ5Lzen50iTrtqz2Wx07NiRtWvXsm3bNlLTWmArzcHniAMpsjGgREUnQNPEU1JAqsOCw+EgPT0diyW8E+L1ekN2ux086KhGH8zt9gk3M+bSaw/6FZuUlEifPj1JTUnG7fawcuWakEMJfPrpbK68Yky1zxGsPQFAmzbpXHP1pbRt24byMhdr1q5j7rz5Ve0g7rzjFnr3OiLszyNLUtXNYxhmyEws0ObtgAX1+PWXm5vHA1Mer7EkoEWLVLp26YwkSaxZu47S0jIS4uN54rEHgnZiiNZ5AZj+8ps1DuiqKAo9e3YnNTWF7Kx9bNy0BYDLLr0oImPn7MrczXPTpodcn5AQT5/ePTFNkzVr11FWFvxX7mOPP8PAo/qHXRUGgZHxPZ7QPWk1TePHpT9zxum1GwH7UM9Oezlk+iFwXXTs0D4w5tnW7bUuTTrQN99+z/wFwR9ErVq15LRT/0ubNq0pKSll4cIl1aq+/X4/r776No8/NrnOx4boXqvBhOq0UykhIZ5WrVqiKEpVXqBpesjvNtjDVq5naVA08oSmKNr3cmM9R8LRpAMpVVVp3749cXFx7Nixg969e+Ow2rF6yvA5IjORrwSoFfeNZoJhmlCcR89uXYiNjaVt27Zh7zsvLz/kzZSWFt2JkGujW7cunHXmqXz51TecdNJ/uPCCsxlwZL+DipU1TePOuyazJEgV5f6cXLZu3U63AxpmQqAxbzD3TLyNY44ZXPV6+PChXH/dVXzw4Uz2ZmVzwfln1+vzdO3ameU/fw8EBj8df9ukoO/74P3X6dI5MqNlv/raW5SWlgVdFx8fx3333sFJJ/6napnH4+Gddz/iiB7dQ7YPidZ5ycrax4cfzQr5WU468T/cfdf4gxpZ/7V+I5/Omh2xX8mvvPJWyCL3s846lXsmTqgahNPt9jD5gcdY+MOSau8tKytnxlvvc9ed4+t0fKvVwlVXXsqFF5xNcnIShYVFPPnUtJClVRs2bAorkNq7N4vvv18cdJ0kSYy75Xouu/SiqgAiP7+AN958j09mBp+gOxhd13lp+utB15126n+ZfP9dBw1oetmlF3HXxAf44YcfD3rvD4t+pKSkNKxhQaJ1rdaGqqqccfpITj/9ZNJbt6aktJSCivao/3fN5fzfNZcD8NL0N3hzxnvVtnc47Py0dH6dj3s40cgTmqJo38uN9RwJR5MOpAA6depE+/btWbduHStWrGDEiBFYi/eh2WIw5PpF7ooEMUqgQMKtB5pfGbpGrLuI9t37YLfb6zWycnl56HYR0R7GoLZuvulaLr9sdMj57FRV5c47xgXNBAHW/bWxWiaohPh1uW9/TrVlgQfbJXVMddPgcrmZOy/4ryZVVZn+4jPVGmbb7Xauv+6qw+47Gufli9lfhxwQ9oQThvPkE1Oqtc3o1bMHvSZPPGx6a6OkpDRoRgrQpXNHJt9310ElEw6HnUcfuZ8NF2wKWrL79dz53HbrjbUuMU5NTWHas49zxBF/n5OkpESmTL6bpUt/DjrO25692bXa96HmL/gh5I+oKy6/mCsuv/igZSkpydx913h++nk5e/Zk1eoYvyz/Pej30qlTBx6YfHe170WWZW679cZqgZTf72fFilWccMLwWh33UNG4Vg8nNjaG6S8+fVCD4tatGz8IiWae0JQ0xL3cnJ4jTbqNFEB8fDxDhgzBbrezb98+duzYgVq4H2vxPjDrVhQuEQiebDIkqtDCJuFUJUBCM8E0DYydfzGgZ3ckSfp7INAw1dQ2orGr9SolJyeFzAALCgr588/1rFm7rtpcd5Vyc6sX2Xfs1CHoex9/4lmemPocW7fVXDzfXPz66wq8Xm/Qdeede0a9erdF47z8uPTnoO9VVbVBegn9+uuKkNWtF154btB7wmq1cOEF5wTdpqysnNVrgrdBDOaEE4YfFERVstvtdK2Ya/FQ4c6z+fvvK4Mut1gsXHHFxUHX1VWo9iNnnnFKyOCyTXrroENSbNkafDql2ojGtXo4UyZPbNBeWbUVzTyhKWmIe7k5PUeafIkUwFFHHcXGjRvJzMxk//79JCQkkKgoyKaJKzEdaghKVCBGBYsUCKKssoRFDgRVBlCmmbi0QPfJBG8JbVrEY7PZSE5Orvc8X44ahiyoqe1EY8nM3MOixUtZvfpP1q1bH3LYhgMFK8IePeq8oJMya5rGzJlfMHPmFxxxRHfOPOMUTj31pIh0MW8MGzZuDrnulJEnRew4kTgvPp+f7dt3Bn3vgAH9SEuL3iCUlTZvCd0dfeBRoaftGTRwQMh1WzZvjchk0qGuwXB7/mwP0VOre7cuEbveN28K/n1Oe/4Vpj3/Sp32deh4TeGKVB5Sk759e4VdehZtDZUnNLaGuJeb03OkWQRSkiTRq1cvWrduja7ruFwufK5ybHmZoPvxJGdgKMF/gaXaJFraJGQCVXc6JoYZaA+V5zMp0gIlR6n+UtooXkwlMHZVfYY8qFTTid2bFV6VQaSZpsnixct48633WL9+U52393qr95458si+XHP1ZUHbJVTasGETGzZs4rlpL3POOadz7f9dQUrF6M7NRW5u6IdP166hJ1SujUifl8LCwpAlpF27BC+NibTcvPyQ69q0aR16XUbodTXtsy4i3cC3IEQAkV7D56yrnDBKckIJVYpSG9HIQ2rSown0ygslmnlCU9IQ93Jzeo406UDKNE3y8/PZuHEjPp8Ph8OBaZo4HA5WrlwZaHxu7kX2uvC07IRmqV4CpBsmDvnvOfr8hkS+ZpLjNfEYIBsabb35tLKCq6yU2NhYWrRoEZFqjqSkRBLi44OOGL3+r7qPFxNpxSUl3HPPQ/yy/PeI7/umG/+PtNQUnp32co2ZtM/nY+bML1iw4AcefeR+jjl6UMTTEi3uGnp8OZ3OsPcbjfNS0zyPsbHhp7UuPJ7g14EkSTWW/jrsoUt2azoHjUXX9ZBBq90evHorHKG+z3A4HOEN+BvNPKQ5ilae0NQ01L3cXJ4jTaOhThDFxcV8+OGHTJo0iRkzZvDNN9+QlxeI9hVFQZZl5s2bx66dO6FgH3E7VhOTuwPVU4as+aCioWeuH34rMlhZbLC62GBVscaeMh9oPlI9+fTy7iNN8lFWUkxSUhIZGRkRbSsS6lfIzl2ZjVrH6/P5GDv2tpAZoN1uZ/jwodx047U88/QjYTWOHzXqXL7+8mMuv2z0YUdmLyoqZsLt9/Lnn3Ub36gx2UO0+QBw1WIAxmCidV5CtU8BKCsLL611FSqIME2zxnGB3B53yHWOJjiB94Fd7w8VyeAnkkFZchi/4hsiD2luopEnNEUNeS83h+dIkyyR2rNnD7NmzWLt2rVVy/Lz8/n555857rjjaNOmDWlpaWzcuJHly5fTrl072rZtS0uvm/ii/fjtceg2J4bFBooFJAnTNJEMnTSrghOdOMVENXwUFBTgcDho1aoVycmRv9GPPfZoVvyxOui6Dz6YyQOT7474MWvjzRnvsynIFAqKojD2+qsZc/EFOBx/X9hPP/NCWMdJSUnm1vE3cPVVl/L13PnM+XIeW7YEb9jq9Xp55tkXeXtG6LFJmpKaHgxbtmynf/8+dd5ntM5LcnIisiwH7UlWn4bGdZGWGrod1t692XTs2D74uj2hq8HT6jGOVDTFxcWRn19QbXnlFCeRkJaaGrQH1GWXXsTIk0+s077C6fHWUHlIcxKNPKEmehhjj0VCQ9/LTf050uQCqR07dvDpp5+yeXP1RnulpaXk5OQwbNgwunXrRvv27Vm4cCHbtm0jKyuLpKQkWrduTatWrUhISEBWVJBlzIrhNmXTJK1FGqWlpWzat4/4+Hg6d+5Mampq2EXbh3PiCSN44cXXgj7AvvzqG0495SQGDz7qsPtZvfpP0tJSaNMmPSLp+mL210GX33nHOEZdGLxnRX3Ex8cx5uILGHPxBaxe/SfP/O/FoNNhrF37F3l5+fUaaLGhdOkSus3DN99+F1amGa3zYrPZyMhIJzNzT7V1f/yxmpycPFq0iG6D85q6uK/4Y3XIzPf3FcF7wAF0ayLTgRyqXbuMoIHUpk1b8Xg8dZ5cOpiuXTsHnTlh69bt3HbrjfXe/+E0dB4SLkUJXvHi92sYhhHRHtTRyBMsaujHdHFx8Jk+6jqiel011r3cVJ8jTapqb+/evcyYMYNNmzYFDTxkWSYuLo60tDSSk5MZPnw4d9xxB6NGjcLpdLJ3715WrVrF/Pnz+eKLL1gw/1uWLl7Mbz8v46clS/huwXzeeusttmzZwoABAzj22GNp27Zt1IIogIyMdI7/z7Cg60zT5PY77gvZVbryPZ99/iVjb7yNW8bdHbS9FYAcYkwtM8j3WFRUTF6IxoInnVh9NnQAQ6/bL5+cnLyQXcf79+/DG68/H/IiDzUafFMzZHC6iwUoAAAgAElEQVTo0em/mD23xoa3wcZzivZ5OTpEuwFd15n69LQa50sLNf5UXRw9ZCBqiIfCp59+EfSe9/n8fDprdtBtYmNj6Ne3V73TFQ2hRlb2er3MnjMv6LrikpI69WAbOnRw0OW/LP897Cljaqsh8pBICTXpvKZp7NtXfUyi+oh0ngCB6zyUNUGG/zAMg4cemXqYlFZXl2dIQ93LzeU50iQCKcMw2LZtGy+99BJ79+4NmaGnpqZyzDHHVLVhkmWZhIQERo4cyeOPP87999/PBRdcwODBg+natSstWrQgPj6OlJQUjjyyP5dccgkPP/wwl1xyCRkZGWFP/VJXN998bcgGeOUuF2NvnMB9kx9l+a8rKCwswufzk5W1j6/nzueKq27k0ceewefzs3NXJhNuvzdol+yYEA0Zg02Y6XKFrqf+85A52MpdLu67/5GQUzwE4/f7ue32ezj3/Mv4eu78oDeVxWIJ2VPKFsG2H9GUnJzEsUOHBF2naRo33XwHSw8Zu0nXdWZ9NofTzhhVNf1KpWiflzPPOCXkuh9++JF773u4WqC+K3M3t024h0n3PlTr44QSFxcb8iG7ddsOHnn06YMeJh6Ph/snPxIyQzzj9JENdg/XVU3T6Ux7/pVqg1PuytzNDTfeHrKEIZihxwwJOWzFnXdNDjlgIsDu3Xt5btrLYc8DGO1rNZJqGi387Xc+jOixIp0nAFit1pBVhosWL+Wzz7+sum+2bt3OjTffUW3Q1dqoyzOkIe7l5vQcafSqPb/fz4YNG/jggw9qHJgtKSmJCy+8kM6dg3fVVhSFjh070rFjZKb+iKT27doy7pbrQ7YRME2TefMWMG/egsPua9WqtUx58HEefeT+gxrFp7dpHXQeqhV/rGbsjRM4+aTjOe+8MwFISUlCUZSgmeg99z7EqaecREZGG3Jz81jw3aKgVRQ1+d+z09mwIfDLa/IDj/HKqzP470nH07dvLxLi4ykoLGT2nLnsDzJCrcNhp0P78KflaWjXXXclP/38a9CbvLikhPG3TaJduwy6dOmEz+vjz3Xrqx6Wjz76NO+8/XLVL9hon5dePXswbNjQahl5pW/nL+SHRUvp378PCfFx7NmbzcaNm6t+2Cxd+nO959u7/vqr+GHRj0F/DMyeM5cfl/5M3z69ME2T1av/DFkCGxsbw9VXXVqvtETTwKP606FDu6DTXHi9Xm6bcA8d2rejTZvW5BcUsmnTlhpLBIOxWi1cf+2VPPLY09XWlZeXc+ddk+nRvSvDhg2t6pKenb2P31esYtWqtZimSevWLblo1Hl1/nzRvlYjqU/v0POuzfpsDlu3bueoo/rh9frYunU70196pl7Hi2SeUKnnEd1ZuuyXavszDINHH3uGJ558DqvVUmPv3MOpyzMEon8vN6fnSKMGUn6/n19//ZW5c+fWGEQlJCQwevRojjyy/gPvNZYxF1/Azp2ZzPpsTr339cOiH9m5M/Ogeui+fXqFfED+9tsfKIpSdRPYbDYGDOgXtErR7fbw+RfB2z7UKm0//FhtvrCsrH288+5Htdr+9NNG1tjDrKnp1bMHl182usZftpmZe4K2Taqcx67yQRbN81LpnkkTGL12XciSD5/Px2+//RF03RNTn2PgwAEHNSCuq/bt2nLr+BuZ+tS0oOsLCgpZvGTZYfczaeKEJt+O7tZxN3DrhODzPUKg5+7OXcHnE6utc889g8VLloUc5Xzjpi1BSzkqvfra25x26snExcXW6bgNca1GSqtWLenXt3fQ9mQAq9f8yeo1f1a93pW5m/btwn8IRzJPqHT88cOCBlKVdF3H7Q6vdLFSXZ4hEN17ubk9Rxq1au/3339n5syZ7N8fuieLw+Hg7LPPZsCA0COiNheTJt5W7/mAYpxO/vf0Y9Ua8408+YQaG01u27b9oNfX1PHXfG1GjTVNkzffer9O+z1Qenorbrrp/8LevrHcfNO1nDKybr2kKr340hsHtTWJxnk5UMsWaTz/3JM1trsIJTt7P6++9ladtzvU6IvOqzbXXF2MHzeWU09p+qNEDx8+lPPOPaNO29R1NgVJknji8Slh9wYrKirmjTffDWvbaF+rkXTddVfW+r2R6DofyTwB4JSRJ9KyRVqt99GiRSr3TJpQp+PW9RkC0bmXm+NzpFECKb/fz6JFi3j77bcpKwvduNJqtXLSSSdx7LHHRnzk4cYgSRK33HwdL734NBkZde9917vXEbz7zitBG5lmZKTX2FMmJyfvoGlpBg8+iuuuvaJWxx0+fCiff/beYTN5SZJ48/XnGXPxBXVuu9KpUwdefeW5ZjldjCzLPPrI/Yy9/uqQDTBDbXfhBWeTkPD3Z47GeTlUnz49eXvG9DpPFNuhQztGnnxCnbYJZfy4sdx3750h22UEkxAfzxOPPVCvjLuh3TPpds4+67RavbdLl0588vGMkGNQheJ0Onhl+rNcNOq8OvdA69ChXa16DQfTENdqpBxz9KBaXzdr1/5V7+NFMk+AwJhckyffXat9denckddffZ4Rw4+tU5rr+gypFOl7uTk+Rxq8aq+0tJTFixcze/bsGtsEKIrCcccdx8iRTbdBabiOOXoQX3z2Pgu+W8TsOXNZuXJNyEafkiRx5JF9uWjUeZx04ogaBwu9fcLNmCZ8Omt20Pr5bdt30K9v76rXY6+/mlatWvLSS68HnROrU6cOjL3+Kk468T8AdOvamXV/bajxs9ntdu64/RauvGIMH3/yOfMX/MDevaFns2+T3przzz+LMRdfWOcHSFMiSRLXXXsFJ598PO+99wkLvlsUsreJzWbj5P8ezyVjLgwazETjvATbxwfvvcbXc+fzycwv2FjDHGGdO3Vk1KhzOfusUyP6IDzv3DMYdtzRvPveJ3w999uQ1Y0pyUmcddZpXHrJKJKSEiN2/IYgyzIPTL6b4cOG8uL014M23E1MTODyy0ZzyZgLsVgsdO/etc6lIlarhbvvGs+555zOe+9/wqLFS0M2CLdYLAweNIBzzjmd/4w4rl4/UhviWo2U8ePG0qFDO155ZUaNDd+Li4sjcrxI5gkQeG689MJTPPb4/9iVubva+oT4eM4//yyuu/aKqvs0NjamTvO61vUZUinS93Jze45IZl1bONZDSUkJ33//PQsXLsTtDt3rQ5IkRowYwXnnnUdsbN3q7pujsrJyNm7aQuau3ZSUlqLrOrGxMWRktKF37yPqHF3n5xfw2+8rycnJxe/3Ex8fT7dunenbp1fQX6w+n59Vq9eybdsOPB4PqSkp9OjRtc4lFqHs3ZvF+g2bycvLx+Vy4XQ6SUlOonuPrrRrG9mR5JsKTdNYv34T27bvoKgokDEnJibQqVMHeh7RvVY/DqJ9Xg60PyeX9X9tJDt7Hy63m5iYGFq0SKV37551qlIIl2EYrN+wiS1btlFYWAQEekB169qFHj26RnSsn8a0fftO1m/YRH5+AVarlQ4d2jFo4JF1KrWoDZ/Pz4aNm9i+fWfV9ZeUlEi7thn07n1ExEuGGvJarS/DMNi0aQubNm+lqKgYXdeJiYkhIyOdnkd0D2uU99qIRJ4Agaqv9Rs2sWnjFoqKi4mPjyO9dWsGDuwfsfNa12fIgaJ1Lzfl50iDBVJ+v58PP/yQ5cuXH3aCzKFDhzJ69Oh/RRAlCIIgCELz1SBVex6Ph1dffZXVq1fXGDVKkkSvXr0455xzRBAlCIIgCEKTF/Xycl3XefXVV1m8eDEejydovWulDh06cO6555Jawzw+giAIgiAITUXUS6RM02Tr1q0UFRWhqipxcXHExcVVa+DYunVrRo8e3SQH1BQEQRAEQQgm6iVSqqpy4omB8TQ0TaOoqKhar4i0tDSuueYaunZtmhOQCoIgCIIgBNMgXWHOOecchgwJzD9kmibFxcX4fD4AYmNjufDCC0VJlCAIgiAIzU6D9Sm+7777GD58OA6HA4Dc3FxiY2M577zz6Nev3z+yC7wgCIIgCP9sDTqOVF5eHt9//z0//fQTRUVFXHrppRx//PGNNtqtIAiCIAhCfTRoIAWBSVHz8vLwer20adNGBFGCIAiCIDRbDR5ICYIgCIIg/FP8M+ZdEARBEARBaAQikBIEQRAEQQiTCKQEQRAEQRDCJAIpQRAEQRCEMIlAShAEQRAEIUwikBIEQRAEQQiTCKQEQRAEQRDCJAIpQRAEQRCEMIlAShAEQRAEIUwikBIEQRAEQQiTCKQEQRAEQRDCJAIpQRAEQRCEMIlAShAEQRAEIUwikBIEQRAEQQiTCKQEQRAEQRDCJAIpQRAEQRCEMIlAShAEQRAEIUxqYydAEARBaGCb1sK6jYADkpOgX3dK4pxIqoKk66huHzs3b6NlqzbE2G1YrTLoGmVISDYbChKYZtXuzIq/JSnwWjKDHBMTJBPVAEUzQVYotshIDhXNXUQyOuzaA9t2gccAA0iKh949oUUyftmKxbQFliuA2w0r18H+HHCVgt0GFgt0aA8Z6XgtVmymApJBqbeQ/QX7SE6JR0JC0mWsFgd+E5AtyBYrmgGSrGBiBtKKWfE5JJBkTCnwty6BJutYMUkyVUyvjq6oWOwOfH4PsuFH1bxk79pJWYmbuLg4LE47KZoGG7dCcQloGvj9kJIK/fpCj+5ROtFCQxCBlCAIwr/N+k18/9pb6EUu+owcScu2LSnT/bj8XlRJwuY3WPzjEv5YuYZzzjqTIzq3B0WG+HgsDieG14/M3wGUWRVUBf6XJanyz4OCLEkGCzJOWUWyWCjWNbx+D7iKKNixnezZX+Nds4Fkj4lps2N068igay6H+IGoTjtIgAyGpiN7fGR9v5gdCxbi1HwYVpW8GCfdzzyNhGFDKVQV7ChYrQqFZblk7t7OZncpuq5jc8QRl5CManMgqVYk1YopyVitNiRZRq4MCCu/L0n+O5iSJEyLhOnzku/VsCtWHAlJ+IsK8LldKLqPxfPnsnrFHzgcsXTu1o027duSVFbO5hnvk5SVS1sk/Ej42mUw5LprRSDVzIlAShAE4d/GUJGKXRglbmJQUEwZiwFWZOw2Gzn7dvPX+vWUuMqZ/8P3xMadTnr7DAwZysvLcMoqihkIkir/BVQGTRUhiPH3elmWUFQZWYZyvwdJ96P7NSxeD5uWLafs9z/otCcfx+4S2ilOfKqHAkc+GCqgIGGimwZ+v4ldVUC1E+eXcBR6aKEouF0+yrwSrSxODN3EZlfxef34XW5S4xNI6dKNP35cwuo/VpDauQutO3YitUVr7FYbkiShA6ZpYOoGhmkiYWKaRsXnkauCKWQJzePHbrVgdzrQ/Bpl3nIkTPbvyWT2R++Dz0XLlAS69+6HLTYWW4yNVKedXaqCO78YTBWrJOOScwBLQ599IcJEICUIgvBv4/Ji18AqW3DIKvg0LAZ4dROvy03Lli1JTEmmxOulzOPGo/swZJAsKqoCkh6ovpMOCKIC//9dpydJEpIEhmFgmmZVtZ+JicVuxTRN9mfuYfVPP2EvLOTYzl1oqSnkrt9FjM/AhkRBSRkYJhgGaBqSasViBcOvI2sGDkMiVbGTqOk4ZRnNEYtdteE2TBSLimy1YGge/JoH3C7suk7vjp34c+9eYlNSSEhKwWYYIOmYSOiahGEYOOw2MIxAAAWYSEiKVPGZJByqA13zU+orx2q3oRk+1qxYQcG27ZTl5xJvV0mKc2KxySSkxKM6HBjFZThsdgxk4lULdosFn26Cpjf02RciTARSgiAI/zZ+A8nrRzUlrHFxYLWhmhIWSUayKHjcLspc5eQXFGC1qXg8bvyaH7wedFNClS1IRsW+zOoNogzDCAQdB5RaGYYRiIkAu0Xh22/m8fmc2fTt3p1Thwwi1u3F6SnHE6fg94BkVdDtgF0JdIuSJSQCoZpkUQKBjg5WAyj3ItsUrLIMEpiKRKnfgyabyOjEqxJer4vsrN3k5OTiSEzCqlpQZAlMA9M0UBULFqslEPjpOhImhmn8Xb2HgikFgiu/x4euayh2lTKfi5Lyclq1SmNwh3akyjr79+xA85RTVJxHTMtkYmISsXn9OB123BK4XR5kp4EpWcD0Rf10C9ElAilBEIR/HQmrqmJ12iHWCZqGzydhyCYWScVms9GzVy/iEpIoyM/B6/HgLS8nLjYBi9WB4dUCbbA5sAyqom3UgUeRQDKlikDKxDB0DMNg3bp1LF68iKysvXRsm0657kVNjsVIdOB1yng0P5Lsx4cKui+wI1kBwDRAk8CiKMiKjKIoxMQ68cgGmmyCw4Iumyh2C6YCfm85hmJicVpIaZmMLhnkoaAoMhIVza5kGZNAAGgYBhZFAdNAlg7o2C4FStlkSUJVLNhiYin0luD2e4mJj8HqsGL1+klOiGXnphJU007rGAflrnLkkmLSrHbsMU5KDQNVkTF1A1WRRN/5fwBxCgVBEP5tZBO/bOCWjIrSHrA47MiKgtvjCbwFiUXff09JQSElufmomoldN/EWlyBVtH0yDvhnmiZ6RSACgaBE03U0Q0c3DQwCpVKaphETE8OQIUfTsmULwMTicKBZVNSURIw4G9gVDMlAsQUCmkC9oIxkgixXvFRlfKaO19RwG37K0HBbAacFQ5UoKy/D6/dhddjBIrErezfbs3exJy8LWZWrqukURUVRVCRJxtBNDN2sKGSTqv6ZSJgm6KaBbhj4fRoulwdFUXA6HXg9biQM4uNjychojdWq4HKV4XaVo8gSqqqiGQYxCYkYsoyiyMiAZJhgiKq95q7JBlJnnXMxS5f+3NjJOKxdmbs5+ZTzyM7e39hJqbdnn5vOA1Mej+g+L7nsOr786puI7jOaXC43AwaOICtrX4MeNxrfvSCEJJn4JRPDoUKCEywKHt2PZhpY7XZ0E2x2GyOGjyDWEYNkmPhcbjwlZcTbnaiyjCz/HYxIksSBzc3lQ9ZXvq5cFp+QSH5+Pu6ycgzdoNzlxmsYmA47stOBpuuYhoHdYgn0FjRl0KVATEVFbzqPF0WRsTlsaKaOoYI13glWFcMwcFpt2BULhscLmobTYSO1ZSrOOCdWmxVFUf6ucqxox6UoCjabjYMCqMrPJQVeGyYoVhuyquL3a4F0Wq3YbVb8mheL3QIWGdVmweUqx9B0TN3E7fES3yINt6mjaTqVTejRjWqnR2heohpIZWfv59YJkxh63EhGHH86Dz08lZKS0mgessG1bJHGlZdfTEpKcmMn5R9j5co1XHvd+MZOhiD8c6kyplVBsyoQH4Pf8GPIEgaBtt0+XSejXXt+/fU31q9fT3Z2Nl6PB4fVhtftOaSn3gHDIBCo/tJ0vaKBeSCQMgwDXdfRDQNkGd0wSUpKwWlzgGZg6hKKYkexOUFSibHacKBgePzgN8CoqNqrqEtUAGw2JN3A53ZjUWX8fh8+QwNFwoqCTZeQ3T4SVBs23aQwex+u4mI0rxerRUVRZcDEYrWAJKGblWkDTTdwe7wUl5RS7nJTUFREQWERmm5gIuPVdXyGjizLWGQVm2IBPVDqFpuciGy34pdMNL8fw6eheXxYbQ7kmBh8soTNZsWCgmwQ+HxCsxbVNlL33PsQHTq0Y97XM3G53Mz5ch5r1q5j2HHH1G4Hh9S3N0V2u50xYy5s7GREhBSF7zucXZaUNkywbRgGsnzwb4lofAe1UZ/jBvscglAj08SUJbBZwKoGSn0kueo6slht2JxOBg4eQpzdirs0Dx2TwuIiWrVph1sPUR0lUTFwZUVQBQcFXJXLVYsVt9uL1+PB6YjBandS7tfxyirJGW1Qc8uR9ECVWKBtlHRwYywT0HUUwK6oKLqG3+/FMA1QVSTDxCapgISkmciagVO1gqah+3wocqCNmMWi4vf5MBULihLoSej3axQWFLB8+S/06tWTclcZLpeLlq1akZyahsvlIdYZh8/nwTR1ZElCkU0ssoJp6BiyRFqb1kj5Bfj9Gn6PD7vFjtvjC5RaWRQ0vwmSjCTLVW2/hOYrqoHUjp27uOKKi0lMTCAxMYEbxl5dte7d9z7m19/+4KUXngJg0+atXHHlWJb//H3VezZu3Mzrr7/Djh276NuvNw8+MJHU1BQA1v21galTp5GVvY+OHdrzwOS7ychIP+j4hzvGQw9PpVWrlmRm7mbjpi0APPHYA3Tp0gmv18v7H3zKnC/nUlhQRM9ePXjskfurlTztz8nl1NMuYNmP3+J0Onjo4am0bJnG9u07Wb9hM3GxMTz91CO8+/7HrFixCouqMvXJh2jbts1hj/H13Pm8+eZ7lJaVUVBQCMCVV4xh3C3Xh/z88+YtYNHiZXTo0Jaffv6NwoJCxo+/gVNGnljt/OzPyeWRR55i1eq1dO7ckaSkRBLi46vWhzqGz+fnoUemsmLFSmw2G2edeSrXXH0ZEChNmvr082RlZXP0kEF4PQf3SPl67nxee/1tPB4vRw8ZyKSJE3A47Aetf3LqNLxeL/89+RzOOOMUxo8by7HDRvLK9Gfp06cnABNuv5c+fXpy1ZWXHLR/TdOY/vKbzPlyHrquM/LkE7h1/I1VxzjrnIu5687xvPLqDJISE3nh+anM+mwOb775Hpquc/ppJ1f7nkKluabrB+Db+Qt5/4NP2LkzkxYt0nhg8t3069u7dt/9uvU89cwLbN26nbZtM7h1/A0cPWQgAPPmLeCX5b/TsmUL5i/4gXvvub1qnSDUigmqrKDYrKAo6IaJrmkYuoGuGWiSQcvW6ezO2suu7dvo3bMTukUFmwW35gNZrRYkVQ5xYJomphQYHsEwzUDQdkgJlq4bWK02ZFnB7fPhlxWMmBhcuo88XSPRqmLRDUyLCooCVPTGMwJDOQWCtED7LgsmeH34PG4kyQSLgqZpVYGhpOioWElKSMSuWHCoFmyqitfjQtf8KLofSZIx0dHRkABVVXE6Y4iJicHr85KckkJcfDymGSjB0gwNExO7zYZk+pENA7vNil2WMVSTIcOO5dOZs4hTYtHcPtwl5cTbY9AtKobDilvTsEvgV2SwinGkmruo/owdfdF5PP7Es8z5ch6eigaMdbFq1VoefeR+vv1mFlaLhceffBaAnJw8xo2/m+uvv4rvF8zm7LNP4/7Jj4aVxq/nfst1117JrJnvMPSYwbz2+jtAoI7fYlF58/UXWLzoa5wOB2+8+V6t9vnNt98zbtxYvpz9IUnJSVx1zU2cc9ZpzJr5Dj16dOPNt9477DG2b9/J1Kem8dKLT7Pg28858YQR3HnHOG4Ye/VhP/+yn5bTt29vPnz/dSZNnMDUp6ZVS6Npmtx660ScMU6+mz+bxx65n8LCoqr1NR1j7rz5ZO3NZu5XM/nw/dc5akB/APbvz2HcrXdzxukjWbTwK8ZcfAEFhYVV+1y67BdefuVNpr/4DN/Om4XFYmHGWwd/p2ecPpLx466nX9/efLdgNuPHja3Vd17puedf4fffV/LJRzOYM/tDdmXu4dHHnj7oPa+++hYvvfg0Lzw/lUWLl/K/Z6fz6CP3M/ermXTs2P6g9x4uzaGuH4Dy8nKmTJ7I0iXfcPZZp/Hoo0/X6rvfvz+HG266g/PPO4sli+Zy/XVXMuH2e9m2fUfVe75fuIT09NZ8NecjEUQJdWcEBplUbVZQFRRFxapaibE7sVltyJKCx+ulVet0jhs+HA0oLC1Bsljw+H0YmEF3+/co5lJVyVSlA9tTuT0e/Jofu81OXGw8kmrB7TcwbQ4yOnXB4/VjaEagnjGw57+PEUh+xTw0Jj6vh/LSUtwuN5IqgyKjWK3ogEfX8OgGhiyTmJJCi1at6NSpIz26dcFdXkpRfi7lpcW4y8rwuV0Ymh9FlnA67Bx37FASExJo17YtXbt2JTExEY/XU1FVqaPIYLeoWGUZiyRhkSTKy8rJ3J3Jjp07KS4uQZEUFGRKi0txezyYVgu2xFjcuo7XMDAkKdB6XmjWonoGx15/Nffdcztz585n5Knn89L0N/D5/LXe/uLR59O2bRtiYmK45upLWbZsOYZhMHfefAYNGsCxQ4cAgYfvrszdlJWV1zmNx/9nGO3aZQBwZP++7MrcDYDFYuHyy0aTmJjAho2bSUlNZuPGzbXa54jhx9ImvTWSJNG/X2/69ulFjx7d/j7GzsMfY8vWbXRo34709FbIsswxRw9i3br1WCyWw37+Tp06VFWf9u/fh6Ki4mpt0/5av5EdOzN54P67cTjstGmTTv9+farW13SMxMQE9mZls3LVWmJiYujfP7Ddt/MX0q1bFy69ZBSKotC/fx9atWpZtc+PP/mcK6+4hIyMdGRZZsyYC1i2bHltT9VhGYbB559/xbhxY0lNTSEhPp47JtzMt/MXUlpaVvW+MWMurCr9+fzzr7j0klEMGNAPq9XCf086/qB9Hi7Noa4fgPPPO4vOnTuyY8cuHHY727bvxOfz1+K7X0D37l0468xTUVWV4/8zjKFDBzNnzryq97RsmcZ5554Rse9O+JdRVBRFQbXZQK5ow+TXMfw6rtJyykvLMA2TmJhYflm+nM1btuDTNfyahqSoFcFMzcEUBK+yliQJe4yDwqJCigoL8Ja7kPXA2FQ+r47hN/GWuDDLvch+HXQ9MCAnQEVplFZRGoWhUV5WRnFpGV7Nj+K0VfRIBC8mmqpiWC34ZJkyv49CVxl5JYV43GXs3LqZvP1ZlBcX4nWXgeHH8Htxl5WiYBIb48DQ/cTHxgSq7HQNi6qCoWFRJBRMDL8PydCxKQoWSSZv336W//Qzu3fvoUuXLnjdHjSfD4fdhm7oYJFxaz48moa/okej0PxFfRypYcOGMmzYULZu28HkyY+Sk5PLg1Mm1Xk/ycnJ+P1+ystd7N+fwx9/rGb0mGuq1lutFkpKSomNjQk7raqq4K8I9EzT5OVXZrBs2S8MGjQATLOqW3Dd9qke8lrB5z/8MXr37snuPXvZuSuTjDbpLFq8lGOOGQxQ4+cPdXy//+AANjcnj7TUFJxOR9B013SM4/8zDEmSeP75V/B6vfMJFGoAACAASURBVNxx+y0MHnwUOTm5VUFFqH2++97HfPb5l0Ag8FGVyLUPKC4uwePxHJSGdu0yMAyDvLx84uJiAYiNcVatz8nNY2SQas9w0nzg9QPw3feLeXPGe/Q8ojtt27bBNE28Xu9hv/ucnFzatT34e2zXNoO9WdlVr2Niwr/OBSEwaKWCbLcGJvqVFQzdwO/zUZCbz8q/1lJQWEj2nixkUyK1RQt27dhF547d0TUNWVaqeuoFa9134Gjnh4ZbBiZ+XQMZMjIySEtLw2KxYrHaMXxubI4Yytw+dGQkwwgM+FnRVc/EAKRAY3PTBE3D43aDzwtWBVusA1My8BsGumGCRUVSZfxekzKfF49pUFRWSnbWHrzlpTitKj53GW63F0wJm0NHUiwYMrjLSrFbLGh+b1VPRAkjkKfqflQJTF1DwgiMl2UY2FUV3efnv2eOZPfuvaz9bT2u8nIs/8/eecfJdZV3/3vOuW36bG/qki25SO4F3AATYxvTTIv9ksAbSCGBwAuhBBzekEISCJCEnsILwYTeDAbsYGODjTGyZUm2miXtquxK23d2+txyzvvHnV1ZLmCCjSx8v5/PaFezt5x7ZzXz01N+T6WMm82SNRGpbJpWNE3LRAQ6ivOVCcc1T6qQemgR7JrVK/nf//tVi2kmx3EI/CP1M0b//F+mffsOkM1myGYz9PX1csbpG/jA+//q5+7zy57jodx0863cddfP+OxnPoFt29x08y08sG3n497/Vz3H0OAAG9afwj9+8CNUqzUueOZ5XHvNywB+7vVv3rz1cZ27p6eLmdk5fD/AeZQc/S+6x8+65EKedcmF/OhHP+GNb3oHN3//6/T0dLPnpxsf85x9fb1cfNEzeOUrrv65azvKBK+NYzv4wZHXUj/Km0+hkMfzPA4eHKOvtweAAwfHkFIu1tY9nJ6eLg4ffmyrg8e75oczOTnNe//q7/n6V6+nt7ebmZlZPvLRf10858+79729Pdx119H38eDBMQYH+3+pNSQkPCZRQMtEpJy47knaNlGgqVSqjB8aZ2Zqhl27djH84B66inka5RqjI/uol8p05DowkcbIh9gePKygXD/kvXbBtHNxLh+GsbFR9uzdEw/5tRVGSSIpaQnI5bNoKRBSxqk6S7bVWhwHE7RtA4IQwhAdhtgIbMfCy6RBKlzLRiHxA01TB6SFIVcosuHsM5mbHKSj2INUFl193ewePkgrFCAUjtegu6cPv9lAKYWdTuG3fGzPQ5uIwI+QjkGGIY7nYLRGKUHQalJp1VBA2nH48he+yPT0LIPdyyh29CyaeYZRiJNyCYWmZSJ8o+ExInsJxw9PWmrvwIFRXnz1/+KWW2+nXK4wNnaIb91wI2ecvgGA5cuWsGPHgxw4MMrE5BQf+/i/P+IYP7ztDubLZSYmJvnIRz/FS158FUIIrrzyMjbes4nvff8HaK2p1Wrs2LHrEfs/nnM8FrMzsziuQxCEHD48wTe/eeP//Gb8D86xb98B9h84yIc/+D4+8+mP8/uve/Xizx7v9f881q07ka6uTj7xyf+g1WqxbftOfnjbjx/XOW787s1s3nw/xhiWr1i6WGD67GdfxH33beXWW3+E7/vcdPMtjIzsXzzmK17+Yv7fZz7P9u3xccbHJxgbO/SItfX0dnPg4Ci1eh2/LYSXLV/Crbf+iGazyXduvIlNm7Y8Yj8pJVdf/QL+5SOfYmZmlnK5woc//DEuf96li9Goh/PcS5/FV792A3v2DFOr1fh/n7n+qJ8/3jU/nLlSCSklWkfUajX+83NffNz3/vlXXsbOXbv5zo03EUURt//oTu78yd288IVXPOq5Nm7cxHv/6h9+4ZoSEhZxbJRtYWNDI4CZaSrDezi4ZStbf3I34wdGmZmOI6dTM1McHh9n3/4DHNx/kOp85VELyOFhkaj299qYhz2v2b37QVp+QLbYzUypzp7dIzTqdYQtwBHgKHBshO2AjLvvMA9NG7aNLKMAJcFREteykI6Ltiz8KERh8ITEMQJb2aQyWQYGl9LV1Udvbx8dhQ5MEFAtzeIIjaV95iYPMT0xhvYbBM069VoFS0majTpRFJHyXHQYYCmwFQgT4SiJDn1mp6c4fGiMfcMjVOcrDPQN0NHdRWgilCUxwpDOFzCWQyAkYXtQcsLxz5MWkVq2bAnvePub+eQnP827r/sbUp7HJc+6gLf+nzcAcN55Z3PJsy7kmv/1WpYuXcJfvucdvOb3/uSoY6xZvZLXvu6NTExMceUVz+VP/vj3gdi76aP/8n4++KGP8b6/+xCdnUVe+fKXcNJJa4/a//Gc47G46qrLuf1Hd3LZ5S/hpHVredGLruT6z3/5Cbgzj+8cS5YMIoXkOZe+EG00ju2wYsUy3v3uP2PN6pWP6/p/HpZl8aF//Bv+5n3/yLMvfSGnbTiF51952aIR5c+7xz3dXXzowx/jwMFRstkM7/rzty52Zv7tX1/HP3/kk7znL9/HlVdcxkUXnr94zksuvoByucK7r/trZufmGBoa5E/f+IcMDR3dbXn+eWez9sQ1PO/yq7nst57De/7i7bzpjX/Ee/7yfdxww/d45Suv5uUve/GjXteb3viHfPRj/8bLX/katNY899JLeOtb3viY9+GFL7iCsbFDvP6P3wLA6173u0fVdT3eNT+ctSeu4corfouXveLV9PX18ievfx3fyH7n8d37vl4+9pEP8IF//Bfe93cfYsmSQT74gb9m9aqVj3qusUOHuf+B7YkNQsLjx3NpVlsMet1w326CdMiBrVu4e/MwP9s9zEHdoGvlUi688AKGKkMcODTC3PQMhw4d5sQ169BBiLAktuMghGDvvhGq1SqWZRFFEc1mk3Xr1pFOpwmiIM7MCYHRmnq9xqZ772F+vopVLCJUkZ/c/lPSJqCwfik4IdqRBFoSGAkhxLNeNMpR7dosA7YkJMAQkVGSQFmkCt2UNfgyQsgI10iiMCIgxJY2jfkqlkyxY9teJiamiXSEZTTduRQPbLoblI0yAYRN3EwOIXPUAZRCGkMYRtiWRRTWsaSFJSXj+/czNzPN7NQkWc/l1PWn0WjUaYUhzSgkm8ujHEFkIlrYyHSeplC0tGhH35/6Nj8JPx9hHv5fioSnBN+64bvcf/82rnv32wBoNpu896/eTz6f5c/f+ZZjvLqEhITjms9/mXv/88tIlYe8y09HN1J1JFM1xZ27RsiuPYG155wNGGZKM2x+4F6q8/NcfPb5vPpVv0v/siUYKcjn8wRhyF0/vZtyuUyxWCQIAqIo4pRTTqG7uxuAKAwwOkJJwcTkBJ/41Mfp7Brgwd2TLB9YRmlsL2uHilx+4cmc73oc/Mh/kW0Jpno6OOld74Szz4OUi1HQilp4SkGpTOs9f8vI575BX0Mz35Ml/47XYy4+n6bnEEkbK7QwJkK7AY4MEJUyzfl5hoeHKZXmcGyLBx/chTGacrVKKpMj39lFV98gTiZHvqMbN50hNJBKZ7AsG8eW5DyFjAJsbdi5bRug8VtN9o8MU6/WmBqfIF3IU+jvp9DTQyadJS0cBrw8+264ierXbqJPS2R/J8/6y3fDa649pr8OCb8aydDipyj79h0givRilKHZbHHg4Ci//cpfrlYnISEh4REYF+UL5mamGKdKa6nL6gs24A9PMZRWrL/oeeR7hjg4sp/9w9vIuHlWnbIMKTTl8gxLrGXYXgrf91GWxfr16wnDMJ63F0X4vk++3Rkbtc07oygiDDUPbN/G4fEJpJsj39PFwenDzI+P0Tr0IOcUbeYyWbK2i4gipCUBDdIsduzJhxhYGm1i118lEZbCdl0CpQgjTahDhFHYlo2y48LwINT4UYRybGqNOqW5BsViAdexaTQaREGLZq1GpTRL0bLQQYtqyafQ0UFQr+Bmcxjf4CPw6zXSymLJ0CC3334brVYTSezmnspk8FJpzILLuxBoIQgijbJtEG2PrThf+et//ROeUBIh9RTlNa+5lr/7+w9z9ct+B8/zsCzFy176Ql5w1eXHemkJCQnHO6Fmbn6ek845jxOHcsys1uyoHiLMa0468wSa1TKthqA0MYeKJJ25DqYOH2a8Mc+FzzyHyclx+gaXoLVBSEmxWERrTavVas+qo+0SHqC1xrYUtm3j+y2G947gOh71ap0TTzmV7Vu3EgUNDowO8+1vz2KtXM2auRpOCKYrF2e+whATabAkSiggAiEQQiIthYg00rZQrkMLgbItIi0xWhBojV9v0qrP05qdI6hV6OjswrIUjVqFB7ZuxeiI8nwJbcBLpcln04gopLuYZ+zQOPnBPqZnZqmFPkaHNCyBIwWF/kHu2fgz0uk0K1Ys564776RWqZLL5dEG6o0mwm2SymiyKZvIgO16GCFAiqTM/DeEREg9RSnk8/z9+/7vsV5GQkLCbyIyIEgbUqevoPCsM7Cae9mzfYpVa/sZ2z+P1YyYn54jrTUvf+ELmZ4bY98+FyUb7NmznRNOPpUwCEhnMtiOS6VaRUiBUgrf9xfn7EkpUUqB0YtCa252Dlc6VKbmGN87guuHuEJz1kXn0Zc2HJiYpbvWJN0wqFZ3bGUuVTxOBVj0QhBxZ5+yLIgihG0tGnGG2hAZg9AGpSSW7eLkO+hMZ3GFoVqeZXZuGtdLEemIfDbLqaeczFxpnmw+yzlnnsm+g6NkXJuejjy6WSeozZMpFqm36kxNzHHC6lWMHdxPuVTi7LPO5PYf/Yj1GzYwsneEsdFDFJRNKpvD9jyQilAbAgxeLgMqLp7XixOYE45nEiGVkJCQ8HTDEqiUS8NWFLQkPFxnjdfD3SMb2bN5O9P7FJbTT2pgAC0EQ0NLufvu25mZO8gzOopEOkLriHq9jh0EOLaNsix8P8AYE4sn4k5aYwxhGBKFIfPzZcrlMql0lhPWLGd4eIxGeY5T1q7mpGVdnLZqkMzIKN3hMI1Ds7FhpYkWxYbQxI7mglhgCYGyLIQW4NhIxyU0BqREYgGK0GhCP0CYOPUopGGuUmX5qjU4SjI2NsbuXTvo6ujg7LPPZnauRKtRJ+O57N+7hzPPPov9+/czMXqQwe4utu3aSU93F3fc9kP2PriHdDrNueefy9ihMarVGitWraJaa1IodpLq6CSdKyAsGywLrSWW6y6Uyyf8hpAIqYSEhISnG5FGYtHldqG3TTN3206GD97PtrG7CZViflLQsXyI3jWruG9kGMeERCqNSncyMVujVK4xtNRGKRUPIVYSrTVBEJBOp9v1UGE88w6QQuC6HrVajXqjhTYB05UyTi6DDmuU5sa5e/d9bLCvYGWqi8KSkL3lBr6IQAfQHrcXZ/QWwjjth1IYBVpZCMdBS4kfhhglsaUAJErYsaGm1kQ6JN/Vg+so5qYm6R1awo5dO5mdn6e7p5fBoSW0goAVy5exdev9VEslStPTOEri12tEzQbDex7kvns3oYQim8txww3fJggjJianCSMYHFqKSnmodGYxImV5Hkq35xtKEdvGHKvXP+EJJRFSCQkJCU83XBvlOtSaTe772WZGt+ykocu84EUvYCJosmnzLIPrzoUlg8zt3cvme++npzPH0u4slWo8QWC+VKLY0YHneTSbTZRl47nu4lxVIeJUn5QSjMZoTak0T6VSxbI8pFD0DfSwY2KE0eFdLBERW+/aiHaLnNcxSCUICcOItp1n7LlkYk21gEFgEERSoi0LLBstBMJSICWBH492QQTYdrwmjcTJ5AnDFl39Q3R2deM4DgO93ZgoolytMjE5RTqTZcOGDRzYtx+0ZtnQIN+78TtMjo/jpT3WnrAGHWrGJ6colUr09vXT2dUDRsbzA20bkc1gZdI0gyCOSIUCQZzylMLEtVKPMkYn4fgiEVIJCQkJTzdkiPEEbn+eFT1n0XfhOiar++lYJTlw3330r+gkaM0xu69OY3aapQPdBH6dA8P7QEQM797N0qElSCEIggDLUkgpaLZaOI5DGGmiKEIqQRhG6CjCsW3q9TrFXJ75mSqHRg7QPRTih03WnXYiV52xgebWESrTLWabLQIktML4EbUn+1mxrZQyBhFF2LZNaAyBADubxsqkCYxBY9odzwpL2BgMWkcEwiCMIAgiJBKjwbZcVq89maBRR4c+HW6aQkc35UqVuVKZcqVKFEUcGhtjxbJlpBwbIaBer1Ot1ukbGKDY10c6XyDf0YGSDo5yELaD9lyMsrGEjNN7QCqbxXEcTLOJEhJU8jF8vJO8ggkJCQlPN5SLk89DMcOy5cuo+XXmtleYmtxDb7bAxOxe6kHAjHCYnJ3j7HPPprenyMju+6lWSkRhgI7igcGZXI4wCHBdievY1BsNhIy79IQEIw1Kxqm/RqPB0NAQ/d0CowUj+0fI2TY9BQehDKecezZLQo/+uuDQxDSRbEE7urQw2E/STu+1nQOEVBgJykthpMS0u+G00QijiTRIESfRonaxlVI2YGGEQaOxbIENtOrQajWxLAvLdjh0+ADNeh3PcZiZmaGvu5uds7PUalUymQyO4yCkJNQGrLhGC6MQloOyXYTlYCwbZSKEtMAYlG215/bFKc+E45/EBjkhISHh6UaYptpSmHyB+ZZP2pecWVjOM3OryI9UKUw12fXjjWzbtJ1C1yCzrYi6sBjZf4iNd9/Lli1bKc3NoqMQS8o4MuX7RFGEZVnxDElhFjv4ACYmJtiyZQuVep1ACtK5HLYf0KEFD959D/OTkzQ9i9SaFXDCasLOPFHGbefyDFaksQKN1LAwMgahEJaFsS3sTBotJRrR9miKByQbNOh4TI02Bi0kfiRoRdDwIxp+RKAFkZFUG00mpmZASArFTtLpDNoY9u3bRyqVYueuXcyVSqRSKXR7MLLlOHG3oIFmoNFSIW0XaTuLD6HsduehwnJclJIIIdr1XgnHO0lEKiEhIeHphnDI5DsQKZsg8imNjHP/rTdzYHgj83NThMYllC1WnLCC/jUrqfh1/vu/b4b5MmedcSa1Ro0gCAiCgEqlQq7tcB6GIY7rxTMypcBog0Tgei6WZVGr1QhCQ71R5pJnXEhtcICd9/yQzpSJRdZsQPcFPeRzfQTpNKkoAq3boSfiyJRYKNEWSKkQyiIyISrlEXLEUsDouIIqDl3p+KEkkYlrqyzLxRY2hC1aQRNlDIWOLjo7O1HAvpFhwiiio6ODqfHDaK0pFvKkTljD6OgoLT9A2iFuEOIiiIQkNOBZLhqJkjYIKxZ7MvbV0oCybSzbToTUbxC/NiEVRRo/CAkjjdZJr0JCQkLCz0NKgaUkjm2h1BOcPFAGx4H58hTS9dh8y61su+tuKk6JC55/MVPNCsuXZXGWryDdlaI1NotoVOjtLFItz2O5Nvv27aOvfwDH9QjDEK01sYIxSCmxbRvseLyVjmKrBCEEs9PTCDzmS3PMNap0rhjg4nPPpnboEM2pCpt+fA/LrnghOpVGlWsQmjiipCRRWxgp4vSeUHHazw80lucSYTAL3XAiFlACg2gLMdP+ats2zWaLlvbJujaZbI6gUWN2aoJyaZZCLke1WmXN6lXcdcePOfnkkzk8dpCtm+8jk07heh65QgduJotKZzBKIW2HSEgafoCbSoNQi8XwQirQGiM0yrKwHLvddCgSZ/PfAH4tQqrR9PGDZM51QkJCwuNFa4OvI/wgwrEVKc95Ag/eRHmKfCFNKG26lg5ycc9VBF0a2SO466c34fZY5FKGsDxD9dBB1gwN0dvdxc3/fRPLVixly5YtLFu2nI6ODprNBlJZeKk0YRjGxpztwnPPddFac/jwYYrFIo6dIgoUkxMTSAH9/X00/QanrD+FXL2TJcVVqEIRu1CkMX2IuDBKtiXUQsoOlIyNOiOtCcIQ2/MI2iLKmLaoa+8lhWgPO4bIaMJWC2EMSiqiKKJSaWCCJrl8nt7uTg7s20ehUCCbzSCE4MCB/Zxx2np2bH+AQi7HxMQUflRHWzael8axHKTlIJWN66URSiGl1a7JEigl47WL2HXdcd3YkV3JxJDzN4AnXUjVGn67hTUhISEh4X+CH0Ro45NJPUFiyhXInEsQBpQtWPfiKwn9FiV/koMT2zjr/DPA11QPu2y/f5Tz16xFZfPk+wcwTopqZZp9I3u4666fUCgW6OrpodjRiRACY0zcuReGRFGEEIJGo8Hdd9/N1NQUjpumb2CIw/sOkIoMBx/YyZrOFfT29JD1VtLRtYrIyeJ1dTK3x4BSYEAa007rLbhzxgXoYRjhRxFuyiNSFsbEQkqIOBrUzvMBGq0FRso4JdiOFxmjsZQEY0EU0Gg0CAOfJcuXcc8993DyySdzz8/uolSaw3UdjDH09PZSqTdIZ7LkOjrwCkWU54GQ2I6LFBaIWPwJIRFSoHW8biEEjmMTSYGQiYr6TeBJFVKNZiKiEhISEp4IwjCi0fSfmMhUyqYVBURKkOrqYHzOx1M2ffkhZGkO27W487bb+fEPtjA21YTig6T7luB1D4IlmJ8uUSqV2HL/Fk4/83Q6OjqJ/IBGrUm2UGS+3oojNcpQr5QRkU+1NAeA72tqVZ8oNNSbFSK/zvY7N+NVIs67ZCn1fIR0NbKYAbsdsdGxgJJagDAY0X7eaILI4KOgHQkS6DgiZQSGWMzohQyaMRBFRCYi7pvTaB1hlMCxHCJtCAOfFStXU5qZolmvk0l7hL7P5OQkQ0uWsHnzVnKFTtx0ls6+AbxCEZFKY6UycU2UakfPZCzShJYoEQu8uNhdxB5TlooHMCd1Usc9T5qQimuiEhGVkJCQ8EQRp/n0r14z1fIpFgr4AhpRgFaSVA2ckTL6jgNs372J3TvuRyg4ODmObTmcdFIPoUmz78FhmtVxsrkczajGj++8nf6uXvJuhnw6je9HWJkupislhjpsbBmy6/77MM06Y4cm6OhcykkrlzE9OsloeYyLzzmFoekqZrjG1tpdnHdFB6x20DmFFu1C84XrjQRYEoGOHc+Nibv2MmnId+JHIYo42rSQCoyMaQsrjUCi0PHYGQCh0NKiocHXAlsK7LSNJsJo6OvpplmtcGD/PsbGRskWCnQNDpEv9pDOFUkVCtipNE62gJaKIIywPQdhIBIRSgik0IjARxmNEYClcLMZ6krF9geh/tVey4RjzpMmpPwgfLIOnZCQkPC0xQ9CUupXjErZEu15eOkCc/WQglOkOTHLzV/7JpNb78f3S6w9aT3N6jirci662M+ylauZHG+QT+cJ6zaRDpicmQUh2bTxXjqyHSjbRqRcgiCgUCgyWzrM7d//Pjs23UMQNNmw/jQmJ+tU5uYQRKw9bS1dgwWeec5qNt/yM6SbJkIgLYXtOhgpFifBGHHEPypO8cXF5EYIQsshtB00LIokYxbqpeICc9GOSAljkDIWWpGJhZZGYYRAELstaCIGBwcZDxvcd+/PEECkI5RlU+zoJp3rxMvmsVNpIiERQuJ5KWQQ4gcBrmMDGikEQoOQEmkgArQQ7TExsh0VSzjeedKEVBglKjshISHhieaJeG9tehaNfB4lMlj1Om7WwXcsKr0S5xlDdHWuYOjE5Yw/uIu+dJFIFhg/XKZVKqPCJmedeQaBqJOZ7KBZq3HLLT/k0KFxnv2C59PR18fs1Dy+H7Bp8yZ2bt9Md8EBzyGfK5D1uiimbPqG1rLi9G4s22da25z+x9fQkx5CNw0p6aHsPOPCimuklCHEYKuHd7nFI1aUYyNsK+7YM3EkakFIQVy3hTGLu8q215RZfOi2aIvrpsIwwMlk6O3tpdlskslkOHHtWuYqNWr1OspOERpBTimE4xGFYexzZbU/Uo2JM3bt8xm9cO7YkMFNp6hYEmQyIuY3gSdNSCUWBwkJCQlPPE/Ee2uoXOxUDr8RkHZTtMIWKudw0cuvRIoGI+N72LJvN86SHjq7h+gpLiGowfC2faRSp5PuSFMNWvQcPMiPfngrjuuy7+A+vvr1r1JrtZg5NEFnRzdYLpVqi5nZSToLnQwYi9L0NJPzOxhYkuMkUyBfLOBkihiZoyUyOJ5AGEil0gjLAaEgTsi166IW0nIyFiwyHgQs7fjjTABHNm5bUBlz1N+1Xii7aheAt23SYzcCTaGQp1yeo5jJsOG003jggQdYu3Ydt91xJ/Vak97+JZSrNZRlkS06mCjCb8XzBpVtxweXsn28IwIurtcSsVXDgv1BIqSOexJDzoSEhISnGVmdpShrBH4DUcxQDxoIInp7u2nUyvSuOpX08tXUTUA2m6UxM48rWwwNSkozM9y/eRd7R6fp6FlGq2EhlEaYkOFdO5meLZHOppmammCwdymDg0sYm1UYVWR2ugatgJwK2XTr96mMb+GKl7yIwRM24KRcAqGwPI+mruNlLIRrAwoiG2kEWkRo2a6DWjCMkgLluQjHifvw2pEf0f5eLOQFOSKmotDEHXOmrWNEHBwCDUJTLs9TTLkIKfC8FB0dnWgDnuPhehnCVovKfIlmywehcLI5PGUjLOK5gG3j0Hg9Ou4ebJ9IA07KIxBx4TkiGTByvJMIqYSEhISnG8LCdlyEq6hFDbQ0KANz81VA4FsOlmvRn7EpTx2mdeggm+74CRvv/Cmjh+cQmQHWrH8mWiu6eweJ/AgT1cnaKQpLOwiVJJVKsaJvkK6eAbJ9g+RyXYzuHGZudD+d7jymPo8aS5EarTAfjtG/rguv06PaaJBxDJatIOUtLtkStA05JQuFU8YQ2xl4DrixkEK3U3sYMILFmNNCVKo9ow8NQsbRLylBcsQJ3XEc/MDHFopUOkM2l2d09BCrV69hz94Rdm3fTjMI6Ojpw/ZSuNrEPlJSoWVsuimEiEcEGrNogxCbMBhUysMXcXQqMZI6/kmEVEJCQsLTjMAx+GkbaUv80MfRkozyUMLgpl3maRAEFYKxQ3TWa/QGkp/ev5tUuYmer4KoY1tQ9csYV1JvaM5ZfwapwGHngyOMNer4kcPy5Ss4+dRTuHfPAWZLVYyKsDOSVSetZP2SPLndZSp34Tz1yQAAIABJREFUjrDuqpMR800Cbx5pSyItCIVF5LmgBJgAYRYKwi0WhJQ2oIXEODbYFmbBKXyhIL0tYtrmUkBcEyWEim+Eaf+hY48qITRCQNNv4inB1m3badWqpFJpNm/eEndNul5c2oRBRwGh30T5Lo1qFa0NtushhEBLiRBqsWaLtpCLEMiUR2QptFwQhQnHM4mQSkhISHiaEaUkYQAmCrAtC1MP0DrCkg6zpQqhK8iqFB2qk/rELFtuvgP/8DTZlOKsc0/BKi6l1JwFGVCePUh5egrbbMCEcOmzL2PjnmG2PrCFu398F70dRU4/aQX7Dx0iJ33WXnEunlUiN19lZPQOgkCxb/cBlvX2YZotsBwCYQhkhLAXirfjh9ambf2wkK4TGCmIbIvIikeyxNvqdopvoTjJtL/EX6WUi9+L9s/FQicgBiElLb+FERIjJDt27mJoyVKkVJRKJVKew/D+/czNzCCUTZeXARN7UllKoSMNqm0guuAf2r73GhCeS9j2m0qE1PFPIqQSEhISnm6oENsRRDoiCjSWY9GKQgKpIJXCMhLPV7T2zrPtph3s3TRMIZfngmsu4M49O+jvXYYf2ozPzfLgpr3Y5ZCsdvA6ihyanKJaKmNqLUYPTrHxllt57ksu5IwT+nFPXxPXNoU1KJVJvbKD+fEyKtNFhIWnXHyjqZgaSjVxXSt20xQeJgLLtjBxTKddaC5phQF2ysE4Fq3ARzouQaQRUi0GprRpWyUg27VTcdTKtL3PNfpIl5+UIBTZdIGuZjeHmw26enuZnprGb/n4rSY7d+5AI+juH8RSkigMMcYQRRFBEOA48VgcIWLRJmS7DsoYkBApgbYkEUDS4X7ckwiphISEhKcZwnGRzVacLiP2ZwqlQVsaHWnChqaossxUqoxMzeANDDKwKo/O5igM9LPmxNU0yk06MtBcv4Zbb7mb4b3b2HDeJfiNKsLUWdpXZGjFELfe8k36loWcm38GUtn0Da6i2fSwcl0Ue5cz2BJYeCjHoUaDRr2KSZm2+IGHhnQW6p0WbA+EEAjLAtchstVRQ4AXLQ8gHnpMHCE6YouwYJqu2yZTbeNzbVBSUmu02LV7L7OTk3QWCvQP9DN+6DBrVq+kUpmn2mjgODZKKcCgtcaWEtd1gbh4XS505Bm9eHxtDNq2MLbVlnEJxzuJkEpISEh4miHsHFJFSG0jiNBCEJoQjUErjVuwKTXnYF2eDa+5nGImRSOsU6HOM1ecjqUEpjWKU28xtnMHbsYn2y/IdttsWHkCZ563ktLoYW78zFfIZxQzc6OMT+zHyyxhcmqGXF83gZbYlouVVrR0QDWoE/hVBCF2YGMHDggbpAEVYIQdSyjTju60O96EpZApl8iSsRfUQ0byLRpyHnXxZnFcjG7XTS3YFGgNoY7QRtOolenq7WfZ0qXUy2UUhh07tjM6egBlKWzHwUunyOSy5IpFvGwWoyyazQael2qfzBwpcm9HvSKjEa6Dtqx2MCoRU8c7iZBKSEhIeJqh3QyRqi8O7Q2NJhQhERKNIfJDosAn152hs3sVQRBgR5p808fzFL4/T8ZKc2DXOJ01OOPSCzkc1hCiSV9/Actt0eP18NJLL+H2/65x3uqTcLVDUGlR7M5Rb4YIYcUaSWtakU/Lr2OCFmAwkUBHEiFtFkSIeIh+aofR4t48KVAph1CxGJGSIrYZWLTkXAgMYRBCYkx0pLMvzvEtjvTT2uBYCttJ0beqB6lDfjYyQk9ngRNPXMP44cPx6aWFk85ipbJISyGVQjnxvD7a99UYsbjgBT+pCA3t4njdpO15lXA8kxhYJCQkJDzNCFwP31b4MsCXLVqWT0OFtCSExsJVOVIqTxRAK4woB01MyiLf3YkRisgonIbNULnAue4qzulbzopClu6sSyolsVKCFUv7WGbZXNSzionbdmGG63RandRLTdzQJiVslKUxpoFq1vGCCFdbCGPhI2hJkMoCI8EoFvSTXlA9QBSFaDTCtWODSxYTf4sjYViYs7eY8tNxes1otImjT8aYRREVGTBCYbsp5mt1SpUKvQP9dHR2YDmKlt+kp6ebXCGPsiyklGit8X0fANd1j3ZMXxiijAGhMcKApcCyHrLahOOZJCKVkJCQ8HTDBiMNWh/xOFIGjJaoSCCiCBVBMwjw8ilyaYdarUqoA1JKUcx3ULfnkTqNjlxmyy1OOHk9diYPSKTl0mhEZDu6cFN5OlAs7VtDGAgymRyOspEIoqBFo17Gr9dQgFIKIRTaSDAWUtptZ3OILaKituyIYwBax6JIOIpIGowwGB2LF23Eogu8IRYyuq1ZdJzEZCEaZRZ9pkAgqTWa5NIppLKwbcmyFcvRrRq5XIYT167Bsj0Ojh5mer5CobOXfGcGIcViwbl4iFu5MUdSh4ujlKVAWCpeQ2LIedyTCKmEhIRHxfdb1GtV/JZPGAbHejnHHZZl47gO6UwWx3GP9XKOwhYthPHRkUAYBydQKB0hjUHqEPwWmUwGy/KoN32MUUhpoZRACkGjXME4DmOuofviZ5A5ZxDdm6GjMITtpYjsCEPE0LOGOBQopkd2EuSLOLkM2BI/bGBrgQhCMBENR2MwuIDUEitysCKNlG57Hl1E7NwUIVCLBeXaxOJIOTa6XROlTdSOAgnMQj0VR8a/xPP4FsbM0DboPCKiEIJUKkOj2UCYAGxwlUJjqNarYAyu67aLyisEQUAQhrhOLAQXiveP0C5wb/taaa0XhVS8WSKkjncSIZWQkPAISnMzNBsNuro66e7qwPO8dndSwuMhiiKazSaNRpOZ6Um8VJpiR9exXtYiwoSgA7SJEFqgIgsRSSQaIo2jBM16BdJpDAYdRLFIUJJWEJBOZ7EGUzzz2hcjPZvpvE+UttGRRRhKDBLpZakaWHvZc1hZPgMr7dHyPEIFtqUwgU/YatFqtGgaHy1B2ZK0bWFaYGmBUXZ7aHFcCN+WOovmmi1p8C2BsVQspEScyVNCtQWSiKNUIu7MUyi0MYTGtMXOkfolEAgZi6BGs4kSAtt2CcImdROgA83h6RJdxSL3btlCOp2lo7MLJ5XHoAgigxGSSOt4jcLEUTIMEhbTfRGGQBp8S9K0DdjJv6vjnURIJSQkHMXM1CS2bbF69coj0+wTfimUUmQyGTKZDMVigUOHxpmZmqSrp/dYLy0mMgg00mphIo2lbPzQECqFlIKg1cBNuZSiFq0wIJ/J0Gz5hMpDCxsw2CmFWtlNqCMcEaKViM0y2+IljGKRIHIpnKyDRqOERAiDISCIQpr1OpEfkXbShFGIjgJEKkBGIVFgCKUCZYGKiNAInPaMPQNBi7qriIpZjG2hjaER+ETCwjEWllQYE6CVoSV8HMtC15ooYRNi0LItypDtlFtsfaBFnJozxhBGYFkpfB0SaM3p5z4HJTUHJ6cQjo3tpBHSwXLSOOkckVAo20LoEMtWNC1DZAx2CFLHycSmDolSNs20hWhKsH71IdQJx5bkXTIhIWGR0twMlqVYunToWC/lNwbLsli2bAkHD45Rmpt5SkSmXDvLkPKwLQlBiB8JyBeoSYnWAWnXwXUsPCXw0biOTaMV0DCSVDFL5LdQ7eyVrTWeeXg6i4fVCenF9JnB0PSbRLZHxsoAAuM4aBGhaOFKQVBuYmbrDA4NQjoNzSa2BKpNsDMQBBAZBk9cg20JutaeSFjswJKSlnSwZIpWECJMiOUJhNXEhD64kEnlqAd+7PMpjjicm8UoFSh5pPvPtlR7HEyIwGBbgrXTkwz094OxCSML6WbQ0kI6Fo4lMbUanqdo6hZWFNEVSlQzAAT5zl6ozpI56xx0BViW/Fs73kmEVEJCAhDXRDUbDdasWXWsl/IbyeBgP3v2DONnWse+ZmrHAcZ/8hO6mlWEVDS6euh8xjOQGYt64HP4wWH6OovYmQypfIaaaaHDiIJM05iZx7iSyFKxa3dbfIi2QeZCCmvhuZiHiCokuWIPJtTYHQaNoaIDQtPC1U1U4JO2PcLQYFcaTP3gB0RTo3TaDjQETjrPZBTSe8ZpYDlkgbBUxlkyyO5tO3hgfJI5LFauO4kTV6/G0k2ykSHrpDC2C1gUshlYjEMd7TUlhMBovTifLxZVEUYrpBBYUnLBBZcihKRSqaHsFE4qR2AAy8IympxSUJoB48NMCe67n+bufVhBFLcTphT99TqBl4Ok/vC4JxFSv2Ze9/t/zN49wwCkU2lWrVnJi150Fc+99NnHeGVPDH/6xrdy4toTeMMb/uhJ2f6Jwvd9/vpv/p57Nm6iUMjzH//xCV772tdz7bWv5IUvfD4AV111NW94wx9x+eWX/dLHv+6695LNZnnnO9/6RC/9SaNeq1IsFpJaqCcJpRTFYoF6rXrshdREicN3baY5OYXlOlSWL6XzpFNpmICabpLrKrDzwV1Uq3UiR+ENdZHr7MLDo9kMkBkP6dpYlrVYa7Qgmh4a2TnynF78mUZSny1jKYuc42CEZq5VIwobeFED06hjfE26ETHgKGZHx2jedTduKySsh1SNYNJR9M6XwXXYsulndLuCNaedyq5t2/jxrt3oZSv55n2b6UynOW3lUp53+lp681m0TJHO5JANHXtowaMKPykERkcYHW+H0RgdF6groRBI/CAgk8kgpaDerGMsl0ADQUi1WqE1dpBD997N1B0/objzIAONiIyGlG3RiALKjqQx0MuZp66Hi8759b32CU84iZA6Brz0ZS/h2mtewfx8mTvuuJMPvP9DDO8d4Q/+4PeO9dKeNvzwh7dzz8ZN/Mu/fJBsLkMqleKss85k2bKlx3ppxwy/5dNRLBzrZfxG43ke5XL1WC8DtCDrG7oihdIWdT+AKKSlfYKUhcwWWNaxnvLYJJ/6139lrFFi9SmnsHRgBaecsgEvkljtQIqU8RDhx5va0xgKuSI60hgTEoU+VuBjhQFuFBD6ASk3g18p0Wj6iHqN3FSJ7FwNW1mklcROpyAIwbHJIcgqxfzuPRzcO4I2gtzAELaw2blnmDtvu429a5fysiuex5r1Z2JrTcqSSHEkpdc2JYjX3PafElKAVAhj2rP9JMZohFBgbKQWRBjKpRksJ0W66DFba6AjuPcnd/OjL38BsXcX5wpF31SLjhZ0KAvLGLAsPEdwKFcFlThyHu8kQuoYkPI8Ojs76OzsYOXK5RSLRT784Y/w7GdfwgknrH7UfbTW7Tespzbml/SW+0XbP1nXPTs7R29Pz1H3+21ve/MTeo6Hf7D8Kvw6Xv8wDEilvCf1HE930unUU8NKIgzxtCHT9jDylBWPVBEG4ykm6/OkLMH9u7dTb9UJWy1+/MMfsmT5Gpx0htNOOx3Lso6KSAGPGpWK/x7/DkPc7B806wgBli1IWQpH2wStGq1yhUa1yujcKFli0050hN3wsVsRpCTpMMRID4SGeo2gWkMEIQeGR+jp6qZr1RrsM85FDx+gWW4x+eCDTM/NM1eap1KukEqnwbLbokjwkOY9FizOdRQtdgaK9iP2pzKYyKAjg0aj/RZSGdIZh9HxUb5/12bmKk0e3PYAk9Oz9AYBU40q2pekhYtq+LFvlIaibTMrDMhESB3vJELqKcCVVz6Pz372em699bbFD/arrrqa9773L/ja177Jxo338uF/ej/1WoMvfukr7Ni+k3Q6xeWXX8ZrX/vqxQ/Ybdt28PGPf4o9e/bi+0ferF/zmlfx6le/6qhzlssVvvjFr3DrrbcxV5pn9coV/NmfvZlVq1cC8LWvfoN7N23mec97Lp/5zPVMTExy6qknc9117ySfzwHxm+UXvvBlvv6NG4jCkIsuuoAojB7zOh/P9tdd9142bDiV2dk5brjhRq699pW86lW/zcZ77uXT//5Zhkf20d/XxzXXvJzLr7jsqP36+/totZrc9dONNGoNLrr4At7yf96A4x6dRvnc5/6Lz3zmerTWPPvZly/en1+Uymu1mnzqk5/mllt+iGUpnnnB+bz+j/+AdCr9qNtbluSb3/g2//WFL9FoNPit517KG//09YsfMIfHx/nIP3+c+zZvpaOjgxe/+Cpe/vKrEUKwZ88wb3rT2/inf/oH/uH9H2Js9BDf+c7XUErx9W/cwFe+/DXK5SqnnLyON735TxgaGnzM+/7LYNv2E3KchEfnKXN/LZuUa9MMWjT9OoYeMBFaC1qhQeY89u8b4ebbb6U0PUUq5bJh9RrOuvAS1qxZ/QjDyYen8x4+305rvSikjDF4SuG4FloE1MolKgcPMbF/H/Pz02gDfYMr6OzooSeVYza9k4rv0yUBofGlJlIB6AYEYIIA13EYGBgg2L2H4Z0Psn94ktFGyMzkDFLYCNtFeR62EmQ9Fx35betz+ZBrObJmpdpF6A+JpIl2AbrBIJRBCoOmhZAwPT3GyIFJpsrzbDswTtNLc1hZ9A8NkjOGyo4DTFWa9DkWKQkEASGgZQQq6do73nnqhzieBiilWLFiOSPDI0c9/w/v/xCX/dal3Pidr3HSurV8/6abuey5z+FT//oR3vKWP+VLX/oqd95xFwC1Wp23v/06zj//XG688Rt88pMfIZfL8u7r3sFVz7/iEefctn0HlUqZd/352/j0f3yCQiHP37zvH47aZuPGe/np3Rv56Ec/zPXXf5r9+w/yla98bfHnn/3s9Xz++i/x+tf/Pv/0Tx9gaGiQ4eF9j3mdj3f7L33xKwgh+PrXv8ArXvFS7tu0mT9/53t45gXn82///jGuueblfPifP8a3vnXjUft973v/zfoN6/nKl6/n3//jY2zdcj+f+eznH3H8V7zial71qmsYGhrkm9/8Mr/92y97zDUvYIzhunf/FfPlMh//xD/z0Y99mJmZOT720X99zH1uueV2du/Zy9/+7Xt53et+j2988wbu3XQfAKXSPG9841tZv+FUrr/+0/zFe97JDTfcyA9+cOvi/vV6jQ9+8J95x9vfyre++SWUUlx//Rf43ne/z3ve8+f853/+Gyefso53vev/EobhL7yGhIRFdIBlKQSaIPCRUoAlcVwLy1bUyvP86LbbmJqZQloSHQScd8aZLO3vR/t+7JH5KGJqgYfXSD10O4EBHVCZn2H79q3cdPN3ueHb3+CnP7uLatBkxdoT6OkfwElnwHEJlcLXhkhr/GYLlKDqN6FVB8/FsS3KlQrdg4NMTk0yvHsP3dkCJy1bxaqhFThOikqzBbYiCn1mpsbBRHGkqT0Kb6FQfmG9sfCLCHWINpqoHY0CQEJsxhCijY8xPs1alaVDS3jmhRejUjlEvoMZJAfmy4zX60SujczY+MLEQ5gzFpFl8LUfR9YSjmsSIfUUobOjg1qjcdRzz7rkIp717ItxXBelFO/5iz/n8isuY9nSpVxwwTM4/fQNbLov/mAeGxujXq/xohe9AMuyWLv2BNatW8v44Qm6uh/Zbv2M88/lrW99MxtOW8/Q0CDXvuq3GRneR6k0v7hNsaPAO97+FjKZNJ2dHZx//jns2rUbgGazyZe+9DV+77W/y6XPeRbLly/jla98GSc+Rmryl9m+q7ubP/zD1+J5Ho5j8+nPfI4LLngGv/M717Js6VIuv+Iyrr3m5fznZz+3+L9cgIsueiaX/dalCCEYGBjgpS99Ed/97vcfcXzX9XBdByUVhUIe1/3F6awtW+5nz969vOtdb2NoaJCBgQH+4A9+j1tvve2R0+XbnHnm6bztbW/mhBNW86IXPZ+BgQEebN+/b33r25y0bi3XXPMKuro6OWndWl72squ59ZbbjjrGq3/3VZxwwmoc16XRaPD5z3+Jd77jz/j/7L15mFxlmff/OXvt3V1dva/Z930PSVgEZRAVwRkdFHDFURR8Xd4ZdUZ/M6POOO81o44zigoKiqCiuCA7gQAJ2UhnTyedTnpJ71tV13r28/ujujtpEgg7CdbnuuCq8yznPE91uuuu+76f7z1nzmxKS6N8+MPXkUqlaD12/Kx7KFBgAhl0S0f0PBRBwHEsEDxMJ58rlezu4/COXaRGk/QODjBn4Xyi0SiaIBJSVAR3suE0fnrPG1PuHufUJO6TRoqDYeQYGOhj167nONbRxnOHD/DMwT00dR5jxLMYNQ0Uf4CMZeEIIpIkIyGieAKO5WA4DkgiuHmPkShJJBMJNH+A9Resp1jz09feyZFDhzEtB0uAtq4TGGYG0bNxnfwXj7Gyx2N5UHkD6lSjatzbP176xR1/niziCXlDzDEtQv4A2C7ZZI5QIIJuuIQipcj+MP5wEarPj246+WihCLg2huAiFsQ43xIUQnvnCEMjI4SDwUltU6c2TrrWdZ1HH93Itm076O7qYWhomFAoBEBjYwNVVVVj4bC/oe14O4cONfPeq9/zgs88cuQojz7yGPsPHCKdyifAJhIJiscSjiVx8i95MBgkk8kA0Nl5Al3XWbFi2Uva38sZP3XqlEnXR1uO8alPfWJS25LFi/Ihx4ExPZczUFtfx+hokkwmSzB45vDbS+Xw4SMkkyne856/ntTuug65XJZAIHjanPGfzTjFxUVkMlkAmg8dZveevVx55dUT/Z4LDY31k+ZMOeXfQHtHJ7quc8vnvjhpjGU7xEfir2hfBf5CEVwsN6+LJEsisiqD4CJrGq5rI9ouqcQopucQKS8lVleDp8kgSqiqiieKeIDt5EPzgiBOMqbgDCE/URzLpJIwdJ3iklLWrr6Awy3NDI0k0Af76M9l2Ny0iyvWvoP4aAJN8yPJEqZhgisgSCKyJyCNJX8zVixY0TQiFRXMn7+Ah/YcpHj2MvAcpjQ2ctzOMJI6Qe/AIKl0irBfIxAKIk2IzXoIgnhqZG/C+5Tfl4AnCGOlaVw8BAzHRRREJEHBdB0cC0RkVEUERNKZHMFACHvYo6dvgGQmhygKuKaDA4hK3oQTXG/ScwucnxQMqXMA07RoO97GlVeeHoIbJ53O8OlP3cKUqY189KM3MG3aFP71G/8+kWOkqipXXXUlDzzwMH+6/wGCgQA33vgx1qxeecb7/eH39/Ozn/2cmz7zST7y0RsYGRnhhhs+wQs4VyYY7xfHjKxTv32+GC93/KRnjrngJ99PnLygM5BNZ8bGvjZJ37FYjF//+uev6h6nfou/6KIL+fKXv/gio8/MT277wQsaj+caqVSaCy9+58S1qqo0NtbzgfdfzVXveeeLzCzwuiKMFe4Vx34nFRFcGySB4USc55p24UgCRbWVVFZWEq6tRIyEEYNBTElCkaR8DTxRQEDIGyKCMHb6LY87Hu4bS9pGyJfOcT0XyRcgMTxMUTDKwgXLkULFPPj4Q7SdOEbQF6ajvZ1ART22JCLiIDk26EBAQjQ9FEUGRwDJw7GtfMhP8xMKBunqPoE2bRbBYj9dnf0MZbI0BiJkchaeCJ7g4jg2ruuOFUk+Pfw4vpdxj5fneRPyB54HgifguSCICpILtgOeqCJKArKsEPb56BsegtE4kpqvv6fKIsWihOi44AmorojqSuAWvFLnOwVD6hzg/vsfIJlM8bYX0ZJ69tmtJEYTfP3rX5nkbh7Htm3uuOMufvGL2yktjZ71mb/5ze+47vq/5e1vvxSA4eHhl7Xm6uoKRFHk0KFmGhsbJtod98zJ5i93/KnMmjGd3bv3TOg7Aexq2kNJSTHl5S9ccuO5Xbupq63F7/e/lC29KDNnTGdgYICjR4+94MnKl3W/WTN58MGHMQz9JYUWARoa6tA0H89u3so173vvq17DG8n3vvNvLFu2hFQqxaOPPcm/fuP/EQoFufRtF73ZS/vLxHHxbBvPdTAtczxRCMmD3q5untzyDIHSErRAkLLaGpBlBEXBkWV010HEQx4LfeUFLE/+PXJdF1mWJ/TI8obJmFElg+AKIIj4A2Ek10OTJebMW0xbby+tx44y0DfI9m3baHxHKboCnplBlscMPU9EFERkVwRXJH+qziGdSoLrIAFTGuqx7ByK34ca9GG6HumcTSKZo6u3j6ryKLbrMP5bJ+TL7OVfjyubS1I+TOnlCxznt5Y/2icIAhISluPguQKioCFIIq4n4eEhyyKmniGdSlCuKZRXlaMZPaR7R7E8CU2RwcvXEpRdAdzX7nRvgTeHQo7Um0BO1xkZidPW1sGdd97FrbfexvXXXzvJwHg+RcXF5HI6u3fvpbe3l7vuuoetz+6Y6BcEAcd12bWrieGhYUbiCQxDf8H7FRcXsW//QQYHh9izZx/f/vZ/vaw9BAJB3v6OS7n9tjt49tltdHae4NZbb5vIoXq140/l+g9/kKef3sJdd/2KE11dPPLIY9xzz71cd/21k8Qjt23bzsMPP0pHRyf33nsfDz/8KNd+8G9e1r5ORVVVBgeH8DyPJUsXs3jxQv7lX77Frl27GRocZvPmZ9n05NOv6N5XXfUuXNfl61/7Bsdaj9PX1899v/8Tx4+1veCcgD/ABz5wDbf/9Oc8/NCjDA4OceDgIX71q3tf6RbfMFRNIxDwU1FRznUfej9Llyxi69adLzj+lXguC7wMDAvRtPEMCzOnIyGAoiHnLHrbOsh4DqUNdViuR1WskpCkEZQ0QEALBPLJ16eE8MZP5XmehyiKk/KJnj8GwMgZBP1BFEXDcwSCcpCFMxcwtbKB5MAIPT3ddHS2oedSuJ6NK3mgiXl3kCihiAq4gG3iOiaea4GqMmv6dObMmsHo6CBgMxSPE42VYzkyXb3DCJJKPJHEcfJrEcbWdtKznfeu2baDbef34I51eQhjYuceHu6YASliOwKumD8Z6AgetmMQLQpQWhQgno5zuOM4OVnADSjoY9pVCAKCN5Zn7hRie+c7BUPqTeB3v/0911zzt9x00+d4bmcT//DlL54mT/B8Vq5YxruuvIKvfe0bfOYzn8d1Xa677gMT/ZIk8fa3X8J3v/u//PXffIhrrv4Al19+FTfc8Ikzfjh/9pZP09XVzYc+9FHuvPMuvvD5m/H5Xp6G0Gc/80mWL1/GN7/xH9x88xcIBgO8+10vHK55ueMxKOX+AAAgAElEQVTHWb5sKd/6t3/hmWe28PGPfZpf3vVrPnPTJ3nvVe+eNG7evLns2bOfz3728/z+vj/xuc995hWpko/ztrddwl133cPg4CCCIPCtb/0zy1cs5Vvf/DY3fPhG7v3t7/G/wtyraLSE73//vxBliZtv+RI3ffoW9u7ZhyS/uJv/hhs+xMc+ej13/fJXfOi6j/Gd73z/vFQiFyURTVMnrj//ha/yi7t+zXe/90PWbbicn91xNwBbt+3kuus/yeq1l3H1Ndfxpz89NDHn9p/exXvee+3EtWlarLng7Xznuz+YaNu+YxcXrH8Htm1jmhbf+Ob/45JL3826DZfz5a/8C/39A5PGfvC6G1m77h387bUfY+vWk19U3nKIIqLnIXrgOW7+k0AUiQ8M09pyFK2kiFBVOUXRKGXRGCHVj1/xIUsKsqIiy8okj9N4LpQkSUhSvnTMqeVjTjWkHNtBVSSy2Qw5U0fz+5ERqYlVsmDOPCzLxl8c5khHK1k9g6yI6J4DmoRpe7iemNdiEkUwdWzLQBIBx6K2tpb44AAD3Z0U+VXeeemlXLh2PdU1U8gZHk2792EYJqZp4jjO2None/eBiUTz8f0IYj4E6HrguC6GrSNrEkgipu3ieAJIIrZjomeTHD9yEDOTpK62muqGOsLlpWTxsCUBJAEUEVGREMSxfRQ4rymE9t5gbvvJD84+CPjzn++bdC0IAjff8mluvuXTZxy/9dntHG4+wh9+/6sJ3aTR0SRf+tJXePDBh/nMZz81afyc2bP46e23Tmp76KE/TLy+5n3vPS189Hzl9UAgyJe/8qWXtJ+XOv4b3/j6GdtXrVzOqpXLX3RuJBLh7//+8y9pLdde+36uvfb9k9qe/57fdNON3HTTjRPXfr+fW26+iVtuvums9z/TPn7wg+9Ouq6pqeZb3/znM86fPn0qTz55+olDQRDO+LM5X3Ach4cf2cju3fv47E2TDxD8/Of3cOWVl/PYI39AkiR27mzi5lv+nk/e+GH+9V+/yr69B/m3b38HwzT56/e9h9Wrl/O/P/gJg4NDlJXF2Lf/IMXFRezYsWvinrt27WHJkoXIssydP7+HHTubuPNnP0SWZR586NEJY6CpaS9f/so/809f/RKLFs1nz579/N9/+P+455e3UVv72mh0nVMo0niBFARRwBEFcG1OdHVxtK2NbJnMsJGjoaYWn6wiuAKCA4pfwTBMgj7fpNyi8VyjcU+UqqqTPFCilDesPM/DtW0UEWRRJmc7GI6FrHtEfH4WL1rIlu1Pk1NhIJdkYGSIIs/FlkQMEzRZxUHGQgBVAt1BxM0bUoYOkoJPErlw+XJKpk+jMyFxIpXFRaFvaJS2tk5GE0lixTkCvgCa5kMQ816oU+vuiaKI67gTnivXdRAYy80UBXQ7hyWLYAm4koegiuSMHJnROKKpExI8BhNxhFiYYDBEcSSA1D6AKrmAADLYqogjFwyptwIFQ+otQt9AP7mcztDwCNXVVQAcP97GwMAAy5Zd9yav7o3hhWQICrz5fPFL/4QsS6RSaVzX5X3XvIc5c2ZNGlNWXsYtN5+sufjDH/2Uiy5cx8c/dj0AjQ319Pb18eMf/4xrrn4Xc2bPpCgSYVfTXi5/x9vYsWMXV7/3Sn52x92MjiYpKoqwq2kPG9avBWBwaJhQMEhFRRmqqvKxj578vfjhrT/l4x+7nosvXg/AJZds4JFHN7Lxiae44fq/fb3fnjce18KxDATHQhY8HEkAz2YgMcxwMk64cSqJ4TgLZtQiiCKaz48gymhaAJuTXqZJt3RdDMNE13UEQcC2bVzXQVEUfH4NVVUnTvXpuoGsyHgCCIJHQJPI5QymTJ3K2vUX8uimJ4k2NtA9OECN4aBpCtaoiVYUQZJkHNEBWcwnbQsKMjKoGp7ose7Cdfxx05O0PvkUuUAtBw8eo6evG8eyGUlmyGRyOKaOa5k4rpc/CCPkw4ail/dSJVNpbNvBNC0cx0YQQFMVVM2H7JMQFBnTsRAtD1UJgKqSiQ8TTyVxRQgEfETDIVzDYCQeR5pShu2TSSbThGUFZBEXDwsXvLPniRY4t3nLGVK249DdP0pnXxzdsJFFgeJIgGhRgJJIgEjorVkC48p3/hWDA0N88QtfRjfyf8gaGhv46lf//iVLFBQo8Hrxj1/9AosXL8TQDY63tfOjH/2Mmz/3D/zPf//HhGdjxvSpk+YcPnyU//O5yR7YFcuX8qMf30FvXz811VWsWLGUXbv2cPk73sbOnU187nOfYseOJnY+18SG9Ws5eLCZL33hswBc96H3s2fPPt7z3g9yzdXv4pqr301JSTEABw8d5lDzYW790U8nnuU4zsSXkrccjomCg2dk0XMZ/CJYtsHBtmZGU3EWllSQSCUJ+nxIfhVPVlCDQTzy4S5FkTENHU31Yds2iqJgmhb79++npeUoF198MYODA0iShOPYzJ03B8/zkCQJy3GRZA0PAUUUwbNxrAz+gEzSdVmwaDmbt+6mq2uQdtdhVXkVku0QkmXIGRAET/TANsGWUEwFdAE8iZwKNXOmov/5frpauglOCVFTVU5ZYzkdRyU8I048kcZIJzA1GS9aRs4VUEURCQcVD9cx2bl1K+mcTnVNLY5jY5k6VTVV1DVMwbBNPFHCM238iOA4ZNI5ZNVP50iCtpERunu70QSHgCpTWVmGVl5M3Cfi4IHlgG3jhWWEsTBfgfObt4whldMt9hzp5viJodP6egaTE69DAY2FM6uYUht7I5f3uqMoCjfe+NG/2MLHLxQSLHBuUFxcTEV5GQD19bU0NtRz9fuu4+jRY8ycOf2Mc/J5N5Pbni97sXrVcu66+zdkszmOt7Uzb+5sli9fwo4dTZSUFOPz+SbuX1Fexi/u/BFbnt3O3Xffy933/Jb//u6/M3/+XDzP4x/+7//h3e9+YQmStxYulqkjODYBTUGUREzHZjgxjGNbHHluD7GycnyChCxKIAjYbl5zSjglmdxxHGzbzksCCAJlZeWAgK7rwHjOlDhRK9LzPCRZwXPzR+U8J68w7kkerugiiArBohIi5RWYwwOMZjLEEwncjAFCIH/EzrIQAvk15YsHK3h23jvlSPnKeD5F5B0Xb8CKTiHji9Ay0k9bZwuaGuVYexczq0sIB4Ok0hkkfxhNVRA9F8FzEDyPslgpEcdFUVVCWhhci1gshm3bCIKIY1oEtRCemcYyc3iqxnAiTt9wgkhJGVTVMhQfIpVI4NZVIYY1xKCK57p5uQM5f0LSHZeGKHBe85Ywhfe19HDf43vPaEQ9n3TW4Nk97dy/6QDd/Yk3YHUFChR4PuNCju6LhGPnzJ7Jzp1Nk9p27GwiGi2hsrICgFWrl9PRcYJNT21mwYK5yLLMqpXLeO653ezff4jly5dMKvYsCALrLljND/73P1m0cD6/+nU+L27OnJlsemrza73NcxfXxQFsx0UUJXz+AMFIEZFgmOJACM2B+tJyyoIRgpKCT1En8snyxoQwUbRYlhUEQUBRVKqrq1m4cCFTp05l9uzZTJ8+ncbGRoKBEIqs4jjOWHFkAVcAGw9HFHAUGUMQEFSFovJSZq5chBIN4boeiqCi+vyYhg3JHK5p5j0AggSigoOIk9dfQPJEfLLCe696J6nUAIcPPkdiuI+D+5rRcwK7D7TwbNM+ugfjZE2bXDaD4FgIjonoORNJ7AsXLWLZsuXMmDGD+vp6GqdMpShSjOs4SJ5AQAkiOCKeJCAGZOSAQiAcxDU9Wps7aNl/HC/nUVYao7i0GDkoUxyLEFKVvNyB4+Xzr2wHnMIJ1fOd896Q2rG/g/0tPZPaKmMRls6t5YIlU7l41UyWza1jal2MSPBkWC+Z1tm0s5WOnpE3eskFCvzFkcvlSKXSDA4OsXXbTr72tW8ya+b0FywpBHDjjR9m4xNPc/tP76Kj8wT3//lh7rjzbj7x8esnPtRrqquoqanil3ffy4rlSwGYP38OA4ODPPHkM6wcawP42te/xR/++ADDwyN0dfXQ3t5JXV0NAH9340d4+pln+f7//Jiurh6OH2/nf39wG6Zpvo7vypuI4+I6LoZl4QgCGdfm6IkOdBEiZTGMMWPJNkzMXF5GRQBUUUSVJNxxaYCxZHLX9bBtG1VVCYfDyLKM3+/H5/Ph8/lxHAfHcSZOyyGQF70UPJBEPEnOK36LIqFIiLlL52NqAp2JYY6MDBMPa8R9Aqbk4To2nm2Dm0/cdhFwccF1kJFRBJmKWAwjlyIZ7yYd72X9suXEwiW4noyvpJzW7gGSuo2hZ/HMHI6RxXMsEARc8qcCBUHA7/PheR6qqpFOZ/BsG9e2MXUTw8jX7zNxGUqO4IoC5eXllBUVUxkpxicIiLgEiwJIIQ0hoJI27LwDyvFwnTENq4JD6rznvA7tNR3q4mjH4MR1SVGAlfMbiJVMLtdRXRaZeN0zmGRL0zFMK/+NeHPTcfw+lfLo5HIeBQoUeO34/Be+CuRPd5WXx1i/bg2fvPEjk7xFz2f1quV877v/zg9+eDs/ue1Oqior+OLnP8PVV7/reeNW8Nvf/ZGvfvkLAMiyzJLFC9ny7Hb++ev/MDHuXVdezg9/9FP+/dvfxe/zcdllF/ORD38QgJUrl/H9732bH976U+6+57fEYqWsX7cawzBRVZW3HJ4Arofjegh+laPxAR744yF2DXSQ00RwZXIi2CJIat7jZBkmkqAjKxq24OG5+Tyy8TIq40bVuNTBeL06eawUiyzL+dCeImOYFoIIgiScLB3j5sNd4DIw2ENfZgRBMNk82kfWZ+MFPRYIIprjYlsWOHkPkit5uDj5ZHFXRnJFymOVVFeUUzatCClax3MtA5QVl2BMnUHbUAfFbTJz5owSDkdwjDS2p6IQwNV82B4IooDtOEiSjKooOGN7C/h9eB4oiohpexiOgStJBIsjjKRsslYWDxPBzoKZxtIFDCdHSnTQokXk1HwJGfCQZQlVypfdKXB+c94aUp09cZqP901cz2goY+WCFxa0HKe6LMLl6+bw2NYj5HQLgKd2HuXydXMIB9+aiegFCrxZhMMhmp576qzj/us/v3nG9gvWruKCtatedO5Xvvx5vvLlybIX3//v/zht3IoVS1mxYulp7eOsWbOSNWvOXFLpLYck4fP70QJ+sqpMTyrBtiP7GVAcBJ+GZkJn1wm6KysJiCoSKj4FXMvGEyQE+WRdPVEUJvKfxjlVP8q2HcYVwU3TQnTdsbJNHpIgIiKAByIiguviZrN4wyP4LJuUKNGmZwlLDhHZodZ1KfckPNsZM6RcXNEBwQacvEyDm68beMGadTy5awePPXAf6/7qOoKhMPFEHwO9Hh1DSTr7h6mrKMXWNQQ57z3yEPAECVlWcD0LXc+haRrpTBZZknBsC8uyECQF27GRNBXTFRhN65iWQEm0mNrqcg4f3EVFrISG2iJKysqxVYVwNIKtiRiGg+aTUNV8yBTpvP0YLjDGeRfaG4yn2XO4m+372yfaykvDL8mIGicc9HHZ2tmoY5W3Tcthz+Hu13qpBQoUKHBuIgqIqoLk17BEgZRp4CkSmqrhmjaVJTHIWbhZA9cwMfQclmujmzqZbBpd13FsG8uysG174j/PY8xwEhhPNgfGBDzlvJinKCF6IDoekpCv1YfjoYgyoiDgJlNM9RSmOiruSIb+eJpu2yEbCWDgjskUMFb0zsEVLTzBBCwE10VwRFxLZs7MReipNNGQj+OHd9Hb3cKChfOYvXgZpuynL54mlU6Ty6ZxLQPbzssheGJe2TxvHObV2RVFRVFUVFlBk2U0Wc4bgKioviI0fzGCqJJOJunr7cJzLEaGR+juGyGlexhIoCm4goUWFEEaqwzjegVl87cA540pfKxzkN2HuzFMe1K7JImsXdz4gvMs20E5g1p0OKCxamEjz+w6BkD3wCiO4yJJ551tWaBAgQIvD88ja1uERHBUibiRJW1bZAFJkhkYHEIzbEzdwDZN0rkMyAqCL58jheciiXl1c1ESAQHXPdUTBeNeqHFPleO6eHg4nocgeAh4SK6HhIBre8iqhIODrec4sH0HQs4gFC4mI6TpSedIhyNkJQ/LdpGEMe0nwcETXBAc8qnrJqAgSgo5Pcf0hulU1DWQEVRK0jYjjobs86OGS0jqNsl0jnRQIRIMIBgGomQiKj4s28Lv8+H3+dANE0X1kctmEGVwbQfbsPH5AiQNJ19zT/Bx4kQ7XZ091FTUkvAOEgiUoQWiWIQxXT+BUAxXUTAyNpoiY9oupmmBbZ/5Z1TgvOGctxocx2Xr7ja27es4zYgCmNlQTtCvnXFuR88If9i4j5Fk9oz99VUlFIV9E8/pHhh97RZeoECBAucqnostwqil4wU0BvUMpQ21pCyDnGNjSBA3shxsbSFl5MjZBrpjYAsOlmchKRK2ZebFKiGv/C2MKRKMyVaMK51rmpavLSeO5UvJEpYikHUMJA8U3SIqqhSJMomhAZ54eiO7Ww4Rm95IsLYKtbqKdFBjSHSgyIcueFi2ByjggWnZmJYNroWkWgiygYuNLCtcdMHFiJbHpkceZKDrGGG/Rqw0RtZ0OHCklbauHhLpLLpl43qQM3Q8PERJxDKNCdkGwzSRZQnX85BEEb/qw9QtJFFGkf3ohkN8JMPoUI6+riSKFAMhhidXsvHpZv50/1bicZCkMIKoYCGguy6yohY8Um8BznmP1MZtLQzG05PaKkrDlEfDRMIaNeXFZ5zX2Rtnc9Px/D22HuGyNbMpjvhPG9dQFWVfKn/qr/l4H47rUhENE/C/BRNMCxQoUADyho2bT/wWfCpZPU7GcJEkGVGWkVQNv1hCz1A/W7Y9y8o1awkEAuTSKQKlZRh6Lh+mk/Lhr3z5FGHCmJIkaayOnZtP1BbyUhf5/xw8ycMf8KM5IiG/SnJohL6uPtqHO3jowQdYu2olnj9AyHDIJDL4fUEwHPSsieeApvgga4Iq4VP9CN6Y1pWnk7UsNEVCVYMECKGndDasWoWu+Wnu6SKgyMRKY5w43M3uA0doqIjh88cptqGqvoRsNkNAU3E9L58E740VKPbyB+xcQUA3dBRfEESVdE5H0Ypp7zxBRXU18b5+PNGld7AH180SVlxOHOligayxqKQUO56lUpFxRHDG9LQKnN+c04bUkfaBSUZUVayIZfNqKQqfbhCdSldfYiJkB/kcqMe3HeGytbMoCk2eWxmLsG9MPmEonmEoni/wW1NRxIr5DQQLBlWBAgXeckh4WR0jnSUzEqe0NkpAtIgGIyg+jVA4QqkvgNs3wO6mXTimxcplK2moqSMnKiihCIIKjmOD4+Ah5JPIJRdFUSdyi1zPG6tll7ewBIH86TzXxdRzpJEwFZuUYrNp91Z2PLuJmliMkmiMfYdaSHQOErI85kQrqBmME8wmCNgSOcsD2QeKgmNANmWCJ4IsoPlVbMPEsUVwRVYtW83+o/tJOA4+x0F3IOTz4fOHaOno5eCxE5RXVuEKColEgmAwiGOZSGJe3PNUPEHAxUMJaeQMHcuyUZQwHUP9DKSG8ZWVku1PUDstSEcqyarV8zhxvJXKqgYGizS2FwXxaSIrPYcSQcZ0XChUiDnvOWdDezndYk/zyQTw6fUxLlk946xGVHd/gqeeaz2t3TBtHnv2CKPp3KT2kqIz36+7f5Q/P3XwNG9YgQIFCpz36BY+RMI+P7IHS2bNJWQLSPE03lCSkRM95BJJ6iurWLFgIU46w6aHH+aZxx8nPjBAOjlKKpUik8lg2xY+TUVVlbFTevn6dN6YEYUgjEkl5f8veKAIAtHiImw8sp7FwY4WntrxDP09XdiGwc69e7AEkZrqGkKKSrJ/gJG+AXDyVRxsxwNVg5yOa7mocgA8H1lDIpn1MGx4/IknaNqzm5GhQfRUmmc3Psm2Jx6nu7WF/u5uUlkdU9DY29LJ4fYedNvDMAxMPYvrWLiuM7ZmD8HzQPBwEbEBwzNxZRdBFtAti/aeXoorKkjpGfqHe9m7fxuyYmDpcU50thMpq4Oq2fy+x+A3/XGOJDOkLQvTdvMJ5wXOa85ZQ6qjZ2RC/TgaCbBqYeNZ53QPjLJp5+lG1DiGabNxawvJjD7RJksSb1s9k1ULGpk3vYpY8UkNKtt2eGLbUUZTuTPd7jXl0KFmfvGLu1/R3JF4glt/dBvJZPLsgwuQSIzy85//ku9//wccaz3OY49v5IknNgFwqPkwd/3yV2/uAgsUeL2xHDzTBsvGHE2T7uzDbO+lKicwU4kwq7gCJa0z2tGNmMmhGBa54REO7t7Nwf17SY7GsUwDx7HR9Ry6nsvnSYngjOVL5WURhHx4z7FxXRfPc2FsTDaXQ5Qldu3exe133EZxSYiP3PBBSktLUEuKyfhkOnNJiEVQokFyokPCs8mKHp4s5ov9uiYhn4bnCGBqKEodnlCFS4RdTfv5p69/hUcffYBscpSQonLxiqWU+xWcbIrVy1cwd8lKRgyPzsFROvuGSCQS2EYOxzJw7bwx5XkuCGPCo4AreDiiieFlEVQJV1EYyhoc6xlkX/NRMF0CskJpuAQnC5pcTlHRAjY2pdmpN9LvX0SLrpM0LXTbnih3VOD85ZwN7Z2aID57asVZx/cMJtm04+hZx+UMi8e3HuHta2cTCuST1CtjEZgovVdDJmewY18HPYNJbMdhy542rlg/95Vs4zS+893vc/2HrqU0VjqpvaqqimXLXlmsPBwKsnLFMoLBvBH47NbtCMCaNafr71iWxaannubo0WMIgsj8eXNYt27txGmb7Tueo2nXbhAEVq5YyrJlJ3V3Xqivu7uHX/36Xq58518xa9bMifGDg0P8/Be/5JKLL2LJkkUT+1cUFUEAVVEpLy/j4os3EIlEeKNoatpNWVmM6667Ni+upyr5b86vE/f+9j56enrzVeY9l2hplBUrljNzxvSJftdxef/73zcxp7X1ONu27+BDH/zARNuJri62bdtBf28/iCLTpjVy4YZ1BALB055ZoMCL4jpYto0nCkRLo/T39VEaKaKqpgTBp9E8OojluagBDSOXI5VJUd9YTyans3tvE0nHYcbc+UyZOhWf308ul8NxXRRNy/87hzHZbvI5VMJYnURRwnWFfJK657FnVxObn9rE7GlTWLNiEVI6RXV9DclEBk31kbaG8DkOQUvHVxwE3SSZcZEUIa8d5csXGx5JZsANEo8H2Nx8mJbmHchKhJJohKefeRRRUJg6bRbFRcVE/Srzp0+jsr6Rx59+hu4jbdTXVtNYM0pFkS+vFWXmDUBFEBBECch71VwkXEHEc8GnBYinTNqHM7T1DdE4bSY1sSgHNj/CquUrqfAr9HUNoBse9937Z4qr5qNbLsmcQQ4X3XVRx0RFC5zfnLOGVCJ10pAqewmq49VlET545fKJ6z8/dYDR1EnP07S6GKsXNb6kZwf9GhuWT+ePT+wjZ9jER7P0D6eoKA2/9A28TEpKiicq0b9cFEVh6dIlE9eGbuDznfkk4569+wgGQ/zdJz9ONpvj3nt/R2lpKXPnzuZY63H27dvPddddi+s63POreykrK6O+vu5F+wD8fj8Hmw9PMqSamw/j9wdOW8Pfvv99lMZKMUyTxx97gscef5Jrrn7PK9r7SyF/iuikoZTN5oiVxcaUl5nYw+vJhvXrWLJkEa7rcuxYG39+4AHKbrh+4mc+PBLn8JEWZp/y/p3K8WNtPPDgQ6xffwHvuvIKTMuiufkIiUSyYEgVePmE/XiaxEgqy2hGZG//IPrUBnwVUUYtA13wcaDlOHpRMRX+AKGKKDMWzkNUFFqOtbNn/z56h4YZScSZPXsO0ZLSfA0+SUJRRGzbRmKssDAnvVOWY6ObOQwry/YtW9j4x4eZOW0qy1cuIlZRRCohY3R0oKGQTmSRcja+oIxflrBx6bd1ilQfQckFRwchi6GPIksi6Ap/fGI3dzzyBB3t21i6IEp1XSV9vYcYGswQ8geIRUvYt/sgSSXCofZuUq5E/aLlHG7rAiNFVF2GnxiUFKN6HoIoIcpe3ggUBFxBQEBBsjVkJYIjCLR2t3Ksb5hcroc60SaGSNv+A4gNlUihIP4SH5mOQVKtW6i2PWoZokwcO73ouiAVlM3Pd85ZQyqZNiZeq8prsMznl5E/C5IkMr2+nP1H84nofUPJ19WQOtR8mKamPRMeiNt/eidrVq/iwIGDjMTj1NXWsm7dWp7c9DRDQ0PESmNceeXlyLJMKpXmxz+5nc9+5tM89fQzHDrUjCgI7Nm7n7dfdgnTpk2deM6K5csmXodCQaZPn05vXx9z587mYPNhli5ZRCiU/2BesGA+zc2Hqa+ve9E+gNJolPhInFwui98fwPM8jrYeo66u9gX3rKkqs2bN5OlnTi8Wm0ql+cVdd7N48SJOnDhBJpOloaGeiy/aMFFW5NChw2zdth3LsmhoqONtl1yCqiocaj5MR0cn4VCIw0dauOzSS2hoqAdgy5attB47xrHjx9m/7wCf+MRHePTRx9E0jQsvXH/aOlzXY8uWZzlwsBlZlli0aAErVyw/bdxLRRRFZsyYRiAQZHR0dMKQWrZsCU8/tZmpU6agqsqkOZ7nsfHJTWzYsI5FixYC4PP5WLXyla+jwF84po0WDuNYOQwJFE1BDgbw+QMkLBNNVfGAjGmSVlTKKqoQw0GipcWsrqlEaTrIgYOH6ertIZ5MsHjREoqLign7AijBUL50iyfhSRKiKCIi4lgm6VSK0VSCP93/O442N1MSKGL+/PmEI8UYlkP30DAjyTQjvUlE0U9VcRjNySd++yIhrKBBSncRHIt8oE3AMG0EQaSre4CtO1qwKcWVStnedJiZjRal0Rhzps6irLSc7t4OaiqjTK9upC2eo66sgbqGKTz9+EO0tPWyI7SfiqK1hIIWnijgKTKIIu54npcg5JPaPZWsLjCcc9ncdJBli5eza/s2kn29RDWNtOPhV308d2A/ri1w4aLVkIwAACAASURBVJq5SEmDEg9CHRaNoxAWJdKOA1Lh1N75zjlrSKmKRG6sKrZuWBMq5K+YVxCHjoROlowZSWRe3fNfAS0trVx11bsBj9tuv4P0I2ne9a4r0FSNX9x1Dy0trcydO3vSnMsuvQRDNygtjZ4xtPd84vE41TVVAIyMjLBwwbyJvrJYKe1t7WftA7Adm1kzZ9DcfISlS5dw4kQXZbEY4osYsLqus//AQaZOmXLG/lwuRzgY5P1/8z4sy+KeX93L3j37WLJ0MW3H29ny7Db++n3vpagowmOPb2THjp2sW7d27L07ysUXXcjHP/bhSfe84II1xOMJYmUxVq9acdb3Z/PmLQwODfPRj14Pnsuvf3MfFeXlE4bZOAMDA2QyOaZMeXGFfdu2aW4+gmmYVFSUTbSXFBdRV18zaQ/jxOMJkskks+fMfv7tChR4ZXgyti3iqgGKYxEacxJpQSaMTMLwyLR3Mc1fTDQUxnVs0pbDiJ5DszSqyiu58OINTJs5k4NHjtDe3cHw6AgNldVMr6ihMlqG6vcjB/10xYcpKilBsjxajx7l2Z07OHbsCCHZY/n8+biyj/s3bUQO+/AFNNKJYeysiTmqE4sFqK6IogouwZyNd6KX9vggpcEofsEFJDBkNF8xuqQxODxCSjfRBYnBrI3kqBw9Osj0KpF1S2upKI9SWhbFEFXah4ZQvTT1lfMZTQzjiH46epNss1qoLoly6QWLkW0DVRYRZAkPBcsBSRDxBAlHETkxlOTB7YcwJIUTR4+iD/SSG+xFVWxmzp5DV+cxjHiCkkiQoJqipsbP0pJq0iO91A2LxAQhb0SZhQNN5zvnrCEVCfknauENxdOTjJo3CumUvJk3QzNt4YJ5E96JsrIY06dNIzAWKquoKGNkZORV3b+nt5fu7h4uu+wSIJ8/NV5gFPJlHSzbOmsfgOu4zJ03lwceeIilS5fQ3HyY+fPmcvBQ82nP/e19f0AQBNLpNKFQiHVrV7/gGmfNngXkw5fz5s7mWFsbS5YupmnPXlauWEpxcREAy5Ys4cGHHpkwQsLhMAsXzn+lb01+T67L3r37uPbaD6CNFa5duGA+x4+3TzKk+vr6ufueX+N5HuvXr2PlimWn3evpZzazectWZFmmvLyMa9531aSwp+04bFi/njt/fhfz58+b5EDNZrPIsjyxhuPH2vjTnx8AoLGxkavec+Wr2meBv0BkGdM08al+LFkjk8rQlUmDK+MPh5lZVclIehRJVDA8ib7+OA6dpNNpkmmDdNokmzOYOXMmLh6HWo6wc08TOxNPUxYqQlEUXEVm0MqSTKWJCCqJeJzhTIoLL17P4nkziJWX8/iW7ShhP6Zr0dfeTTY5QmZ4FB8BZFzmL1hBY301I12DpEdGiQTDyJYLopXPwdL8uJ6AYWYo9XvIUprDR48iSBZOIk0KB6Emgt8XoLwsSrQswMHWTuyswUDnCYaTT6MLAbJZh7L6Rk70tfHHp7YSKAqwauk8ZCQS8VF8IQkUP9gehueSdV22HzlG5+AImqZyvHkPai7JYH87aBCRDY61deJ6sGTFesqipQwfbWVXx342REvwHx/G53iIpySyFzh/OWcNqdryIvqH8qfQWtoHmFoXO8uMycxsqMAwT37Ql0ROz9U5GwPDqYnX44npbxbi8yqES6KE47xyAZJMJssDDzzCpZdegt+fl4AIBPzYp5QrsCyTQCBw1j7Ih5+iJcXIksTAwCA9Pb1cdtmlZzSk3nf1VZTGSnFdj7a2Nn59731ce+37iZ4lR0zz+chm8rlzqVSKnc81sXfv/vzz8RBOSdpU1Vev/6UbOqZl8cADD020OY5DfcPknKrBwaGJMhiDA4NnvNd4jtSLEQwGWL58GZueeoZFCxdMtPv9+fde13V8Ph9Tp03hc7d8hkPNhzl8pOWVbq/AXzK5BK6ZQxT9iIKMp/mwJIdwRRTXcygSNDxPxXEkrLRBLm2y+8Rhdrk2ml+lqKIE17K4aMVqli5dSnFZOaOjo/QePU56YIjk0AhpI0d3NkE2l6VqykyWX7gWtTSCo4qkNI/R0UGaO44Ti5ZQqskE8SHEYkjTqgkHq9mzaw+poWFK5s5mNJIincswzVapsiQCARHsDAgBZMmlKAyzZkVZt7ycI0NHaO0YIFARZu6UWXzgqgupq7CojAWJD6VJDaUZ7jWJ+usIhaLogoBP1onrOWoXL6Ktq50fb9zKoKSxdvE8YkVhPE/AMR0Ev8L+thM8sHkbGU8iFIxipEYZ7WllTl2M4qllBEQYjY8iByLUz5pL7ZLLaGrq41hrN0pbN5XTqigRRewxra0C5z/nrCHVWFPKniPdOI7L8GiW5w50snx+/dknjjGzsezsg16EVEbncPvAxHV17I07VfZqEc6SD6brOvf+9j6WLFnIjBnTJtqj0SiDQ0M0NubDU8PDI0Sj0bP2ncq8eXN49LHHmTKlcazC+wsjigLTpk2lNFpCT0/PWQ2p4aFhIkV5D1Q4HGbqlMazGievBp/mQ1UU3nnF5aedsjyV6dOnsmdPGelMlkWLF7zguJfCsqWLOXjgIAODJw2yaLSESDjCoYPNLF225EVmn/90dJ7gH//xGxxtPc5FF61jwfw5/ObeP/Db39yJoijcffe9/PKee3ng/t+82Us9v1EVwqEgTtYkl85huR4juRSzF86nsjzGaHyAbE6n40QfD298imTGwKcplJaWUhSNsGbDen7/u9/z6EMPUFoWJTKljo72AfyRAJcsuoyI6dHT082Wlv0cbT1KXXklsxqnMGzneHT7FvqNDKHiEoZHR9FUl4rSIGtWL2RksIujR7rwvCyGYWDoNr29/bQca8GOD1EsyAQMDw8bdBtUsGwXXBNKFP7mqnXMW7+U4yfakRSFaVNmIDgpEgP7aG0/QUhRyaWzZEYzdPcN43YcQw37cYJ+/CVRaqY00tLXR0IL8PjeY3T2jbBgxjTqa2txBZneRDuPb92FoYaYN38eB3btpHnPTvxmmvaWYWY2NmCl0wwMjDKazOJ2xnlmazNNB+JYQwaVyKQ9D0cSsB13TO6zkCN1vnPOGlI+TWZGQxmHj/cDeZXzjG6ydvGUMxYhfi2Jj+Z4etdJPapQQKO+uuR1feZrSTgcon9gMK8s7LoTFdghb0T95t77mD5tKstPkTYAmD9/Lg8/9BizZs7AdT327N3P1e9991n7TmXWrBk88eRTXP72t591nZ7n0dp6nIHBQSrKy8845tChQ8yfP4++vn727TvAO6+4HIDFCxfw+BNPUl1dRUVFOclUCs/1KCp6dQavKIoTnjdRFFmwYAEbn9jEFVdcTjAYoL9/gGg0Oikh3O/3c911176q544jSRIXXXQhDz38KJFI/nCDIAhcdNEGHn74EQRRZNr0qYiCSNeJLoSxP8LDQ8McPtLCmjWrJpLxz0d+9rNf4uFx329/gaLItLYeZ9XK5SiKcvbJBV46jkfGsAk4Ig2VNVxUM42mh39Pa+sx5s2ZjyJpPLbxCZ5t2guaRkNVlKqqMK7djyQmaNu3hZgmMOKDx7duxOoopa2zi3oxRKUUIFZUjd49wpLGucg5j+6WTsxEDjfsQ/Y0XNvh6JETWIkE1TGJ0voASzaUkhnKoShxnnykFc8BX7CEVMYkHR8m7JlooocqiChqCPzlIAWQ5CAOCuQyFBcVs7SihlmzK8haEt2DFk37D7Pjmc2o9gghcrQePcLwQBI9ncIfVIlFQqQ9g9rqGKnBAWorqukZSTGQgkxykONdo4T8h8gaOkndxBcqwXM9tnU/QVDKMaUkiD5qIlhBRK8KUx/BsQaRPJGB9hTpxG4cV8JOdVJaIjF9Rh309OPaHoLnvuyDUAXOPc5ZQwpg2dw6hhMZBkfyyXhdfQnu33SAuspifOrr84c1kc7R2ROf1LZq4YsnEL9c7vj5XZOur/vQa/MhPM7ChQv4wx/v53/+54dcfMlFzJ93UgPrySefYnBwkNFEgh07n5twLX/6UzdSV1vL4sULueuXv0JAYPWqFVRU5A2cF+s7FU3z8Xef/Dg+3wvntN3z698iCPm8qmi0hCuv+CvKys4cuk2lMvzktjsQBFi/fi1Tp+UT06dNn4puGjz44MNksjmKiiJsWH/BqzakqquqyOV0du/ey5Ili9iw4QI2b9nKL+66BzyP8opyLn3bxaedrHstmTKlgaqqSjKZkwccZsyYhqK8k23bd7B58xZAoL6+buKkYd/AADt2PseUqY1UV1W9bmt7vRkaHmbO7FlUV1cC+dzANWtWvsmregviD2K7ILoCPkllxfJl1B58ji3btrJm9TpKIiXIahjJF2Ll8vkcbd2JqIwwc7qf6Y2N7NkxyKDs4g9KHD1+hOLgbCJ+P0PNHezXNXLhClKGTvdoP50jQ9RHovSPpsn29GGrMonRERAdXNtCUSRM00Q3TGRFI55IoaoKsmpiCC5JQ0eVNepr6vAPDSLmHLKGDaYLso0rihSXRCEYQBEdkmYSR3AR1WL64ll+//B2Bk8kqQxLTCuPIEgB8EZoqI1h2xaaZ+G40HP4EMOWSEnNFMRsmikzZvLcrl2sWrwAz3M40dnF1GlTGOgfJjdqYGeTiM4wsutQGqqmsrKBY0e7wTZJZy1C/iLmNi7BtF16BlopnxbmijUrqfApiD4Z1zLGpLYKhtT5juC9TkHa10oN3LYdNu1spf+UfKU3kuXz6pg15eyCoAVeW8YlHW7+7KcL3oiXyB/++GcuvmjDKzYme7o6mTNn1mu8qpfOp2/6Atu2Pzdx/eMffY+WI0cnhfLOFNrbvmMX//39H9HW1kFDfS03f/aTE8ZXT08f3/y3/2Tv3v34fT7e/e4ruPETN6Bpb17OY3PzEaprX3qawpk4W6mss3L3/ey+9adUexqRBdNxPnAht27dyIMPPsLll17BJesvpWn/Qb73s9tZsGIWqjLEe66cz9rlEZIjSf78xw62PNuG5A9ysK2d0oZG/JaM19xHTagMMRJBLy/ioM+kMxmnIusSS9ksCsTIjIyg1BYTJ0trXydLVszFs4apqgihKjAaz3G8NUl33ygr169F8sAeTvLuWD0ztxxEONiJ6vdTd/mloMjsePpJ5FXzWfqpv8P5/9u77/CoqvyP4+9775TMZNJ7Qgih916lN0EERHAt2AvWdd21rb2uZV11fzbEVbGjoqIoIggoWFDpHUILJQlJSJ/MZOq9vz8Co0gfSgh8X8+T52Hm3Dn33JmQfHLOueckZlBps+Mx6ewsC/Lhl+tYv6GUDavWUlW4GUdwOymxQUwmN9mN0lGA2Ph4AgYsW7MG3WrDGpvAxoJCYlPS8QQN0jMy8LjdRFhMlBQV4qmuxu9206JpFju2r8NuiiUlqgO78srxB8updBbRID2Rbl16EnRHsGXTOtLSgnTv1IjMOBvt3F6Md77EvtuFK85Ou4fuhauvOLbPU9SpU34MwGTSGNKrBR1bZhz7EghHITkhihH92kiIqmMyF/PILF6yFIcj8ph75OrSM/9+jG7dOjNq5HC+m/slHTsc/q7LZctWcu99j3LdNZcz48uPmHDdldx9zyPk5dWu//bU088TEWHlq+kfMfGV57BYLBLMARSdYMBHVWUVJrMFq8NB17N6kZbVgAULF+D2VNGwYSoRNhNej4v42Bhc1dXowSBVzmqiomNQTRZMJgt2k5WogIlMWxxdmrbBHhlFTYKDtbhYG2OiIj6CHKWG3GA1O51lYFJRvX7izRHEWiwoPoOdW8rZsKactWuqCAQTaZDVAlfAx/aKYiqCPiLs8cQnNgCblaAVavCCpwJ0F2aLgdmsgaqiaBp+PUAAH7YoK66aakorKimp8lNZo1JSHWRDbgHegMLatTmsXb2O0sJi/E4njVOSiVF1anbngbOUaFMAd9kucnNWkb9lHVW7tuPbnU9WjIUErQbnzvXE4MHsqaZ90+boHi+lZUXEJMbSsGV7dpZ6WLxmC5u27iR3y0bsFohyRBAwgigRZoKaCoYie+2dBk7pob0/atM0jTZN09hVUklxaTVOl5car//wLzwKZpNGfIydBimxxMcc/V1+QtSVJk2aHHay/qnO4YjEZDJhsVhCy1oczquTJnPdtVcwcGDtEOegQf2Y/e085n23gCuvuISSklLat28T2jngjzdXnNEUP2Y1iMlsJqgoqBE2oqNT6dijK9M+nML3879i6NCzadusATsL81DSmrBzq5ONSTEsXbyVTRv9xMakkJyWwfatRUQZNmIt0XiCTiojNLZFq5QkJxKsLgFTEFIdFNRUYXbvpok1ho7JjVi3agUm1cfKn37FhUFJVQ2RNgdOdzGpqelUB8Bvc2BLTodCP5aISKKToymxBDB0IFIFPAT9HiIUBVDwBXwYVitoQXSvi47tGjLz6++oqa4Cw43H76JZ4yzad2nDd7O+xGFRiLLbKSzYgdvroUX79hSUVRCXnEpAUzH73OBx0TwrE3dFGfidRPmsBD2VZKWnkJrcgMoqnc0r5xNp85Jgj2VHaRV5S3Jp0bQzu7xe/EocZeWV+FwGEYYJi6phj4+lMr8cs9kCugzt1Xf1JkjtlZYYQ1rikf2QFfVXVJSDO26/ra6bUW/U9xAVrrXrNrBu/QYmvTY59FwwGCQ9vXae2J133so99zzC2nUbuPCC8xk+fMgJnd9WbwR9qKpC0ADVEoEvAJaoSJq3ak3b9m1Zl7OKrt060LVLW9Z9sAa/W6UsEODdN+eiaRqVTgt+w0mpOxd/EAp25EOUjzRHAj4tSDApmgJcYNbA5QWfD1LiKd9eTKnXTWV5FSZDQ7VHYrMY2COsRERGEvQHqfHWsHJrDg1aNqV161YEKz1kNUjFHGElKjWRzQEfUSZL7STtoIKmq5gNE6Dtmbet4/PUEB0ZS98eLbn6osF8M2M+zkqd1q3O5uyhfUiOT2blmhyC7jJcAYPcHdspLi7DYjdji4lHd/uodHkJVLmIjY5h9/Y8IlSdtJgoKnbl0ygjnRbZjUiMcRBINZNb5CdVjWRFbi47SqsIuj1s27oVd1EVeMqJaRKNZtbQMbBFRaJF2fGbVTRFAUW2iKnv6l2QEkKIvQzD4J67/8Ho0eccsLxL547M+OpjZn4zh7ffmcKHH33KqxOfP+Ier9OWqhEwwAdYIhz4g2bMhpVWTdpQcVZ/3n79RaZ+/il9B52DIyoWszkGq2amprIQTYNKp5MybyXV6MTFxWJ1Q0pKMtaAxq5tufiaxoK7HFQFsEBNDYrLj7/chWoxUVO0m2i7nbIEMxVVXpqlxNO9fWviou1UobPLYiUqPpHqLTsoXruJgYPPQzUg6HBgio/FcPohYAG/ijlgx6xHgK6BYWDoQSKtNqqcldg1g8vH9mJk/7YoqoFiCaJaI1mzfjcRKS3xVRdS5AlgiomldWoc7Vs1RdXMOL0qPmyo+ma2bt9B6+ZNiLFreCp20aF9Z3RVw5aQRkJCNB6vH7OrmEiLiawGDUhOyGDdyrXoVU7sFoXoeIMeZzUjOSsOn6ZT7ddJSIjBZzHtCVKn/AwbcRgSpIQQ9VarVs2Zv+CngwYpAKvVyvljRnLuiLMZMfJCvp//I+ePOcNXg7fa8e1dUDvChhkzqhdstkjatepI3/6D+fKrL7HHp9Mouyk5ObkE3F5qysrwe6sxR1nQbBqO5AS0CDt5BVuwBRWSVTupjig25xdjNfnxGjqqpmHxqZiKnTRQHWRFxhN01RCIUKlyeamuqUHVTFitEWiahu4PUFlZSVlJJfaiCto2bIzJZCaAhi01jUBEBLozWDskFjTVfhla7f5+BNF1A3wqcXYHQX+AgOLFFq9iaBoBTWFXuc70WUsocEbhra7E5XVitydgjQyQlBhHcnw8W7YX8+vydQRqAkRGROIPGKiahYYNG2FzRJKzPY+NuTtpmppCbEIalpTmuL0aReUbKcjNxexz0rpZI1IbpOGIMdGyTQpmm0ogGAR7BFpcDD6rCZOqgCo9UvWdBCkhRL1htlhwu2uoqnISHR3Fjddfzc1/vZOXXv4f548Zic/n45tZc5lw3RXUeDw8+OATXHzRONq1a03Oxs04ndWH3Ej7jGGYCSim2mFOxcCCgjWoEKwOEB+dSq+zhrJ8zWbm/7iItm06sGnLJjKTU8jMSKZNsx7ExkSx3VXGL64iStxuXBEGxa4yHIaXGKudxpUacVEWtgVrKKosJcYdINoFrUyxZJmjiW2fRH51CcGAE5uWiEWLZHVOPkG/D5PVSm5RMY3SM+mQ3Yrm2c3RI2KwaiY0ixXdZsVQXYBeu02MCXSTApqBrgRBUaip9mCym7GpJvwYmKxWPEEDXVfYsX03hSV2ohK6U1AWoLhgNxGBCpQME4FgkLLSQkx40QwXBfk7iErMoLikkO3byunWril+AmzYspmqKi8VFUEMs4o5oxnVhpXiQis1lTqxnhpaNMugSYt07FEadocZDDBH2CGgoMZEE7Bb8ekqaBKk6jsJUkKIeqNH9y688ea7vPDiJB584C66d+/CSy/8m1cnTWbKh5+SmJhA3z498Xp9RDkc9O/fm+f++zI7d+aTmJjA32+7ia5dOtb1ZdQ9bwBN01BNGroWQMGP1WTH4w2AqtG8eVtGjR7LtGnTKCooIDkpga7dOpIeE0laXCwxNgdRwVSWLNtNdWUViQnxNLDE0j6hIUa1j4KqckzVfoI2Ew7VgsUfIN4UQarNRuOGDUjokE1S0I3b42Lbzh1szytkbV4+ZrOZBg2zGN53EE0bZZMeE0MwqGKOTcaqKOCvwZ6chFFQUTtHak+HVMBsgKYT1HQM1SAhIR6P041iBpMCQZ8ff0BHibBR7fKgmRwUllcRrPSBYcPjVvH4LJQ5warp5G7bRVDRyEhLplHTJmzeuoXyonK25m6hRcvmRJgjiEpNwmqNwhk0s2l7EdboFHyeAFZNw2rSiYu2YLfqOGwmrCYFi8WCNcKBz1mDGu1AjbZj1Kh7hj9FfSZBSghxynjlpf/s83j8+L8wfvxfQo8bNmzA7G8+2+eYXr26H3TRznFjRzNu7P4r8J/x9CAaQYIaqHYFr+LBZ6ioVisevw9FgwF9+hJntfLee++xIz+PRYt+pluntkQ6IoiKTiQuMprWCdlEBSJoFJNA46RUGiWn4S6twL4jD3NhASbFS6dmzXBtySPCb5Camkp8i1RqzD7cAQ9lFWUUb8/DKK2iTXwybTp3oHWnjkQmJKFarVgSolE1K36fih4AYhJRHHH4FROggKbjNwfxmoKgBfCpJoKqgi/oImB48Pr9WEwRoKhoiophMkhKjaK4dDNlhWWoehV4qoi2xdCuXXd2u02UlhVhj2yCTakiO7oGmxqkYbwNqz+egBEkKTae1G6Z+P06pVWVBK2ROHNzcZdvwygqwGHy0KVNI9JSa+8UtVoVzIqOaihohkaEzYHZ4cEc7UAJBmRo7zQgQaoOvTLxNUaPPpfMBg3Izy/g46mfYjZbUAwDs9VCo6yG9O/fN7RKuN/v55dfF5GTswmXq5rY2Fh69uxOyxbNj/icy5evZNOmzVx44TgAPvl0GgUFu2o3RTZ04hPi6datK82bNQ2V79yZt8/+fV27dKZv397HrU1CiJPMYiEIeIJ+cNhABY/XjSPKjuE3MAxQUIlyRDGwf38KiotYs241i5cuJ3fLdpJjU4lLTCY9NYGWmdmkRsfiiIhAURVSMtLJympI3OaNLFq/iiYpKeTuLEQzGVjiIsgtzaO00MP2vJ24K6pJsEczZOBgmmQ3Jj49GVOUA8XuQLPb8Ol+7BYLkaYIbIZK0AvmlFSqDRUMFRSFAKBjgB5EDQZRdRWfrwaHw4HX48Ed8KKpCmgaQd1Lw4x4zh/WlQ8++IIqZyGOGIN+vfpx9jnnMvWr79i6qxqVAL5qNz7nVqKsXtq0zEY3FAxzPBXuaJwlTrZv20qNv4w+g/rTr1M6VVVuPCk6GQmR9OnZgozMJFSLRjDgJdLuQFU1fGgEFIOgzYbuiAR3DdTjLZ1ELQlSpxCr1cotN98AgMvlZtasb/l+/gLOGT4MXTf49LPPMZlMnDd6BLGxsRTv3s3Wrdto0bzZYTcqPpR+ffvQqVMHdF1ny5ZcZnz9NUlXXkHcnlvqBw7of8DNgU9km4QQJ5CqEbBY8RoGmCMJeA1sjggMPYjZbMJPkKCukN20JY0aN6Oy2km3bblsWLuWHbm5OD0eNi1bjGo1kZmZSVJCInGxscTHxVJsNhNls5PUpBENair5ddkSivPzaN6kCbs91eRvL6KgtJyMzEZ06duDxlnZJMUnEulwYI6IAIsJs80OioLZbMFmsqJ7/WC2UK6rWBtmUqNqoOxZ8kC1YDVMEFCI8iugKgRQ8Xh8GKoJNJWgoaMbQTAMoq1BLh7WiY6ZdnK3LKJx4wwaZTWjuMJCqTeZjBY9yVm9isoqA79rF5UeFxkBEyU1dnYXxdLQ1JSteWvR9UQ8riqqK1z06tUCu82E1axhs6kkJthQNQOTScMaEUVQMaGrGorZBIaBN2hHiUvAWZwHh9hOS9QPEqROUZGRdpo1a8ratesAWLd+PdXVbq6+6jJMptqPrUFGBg0yMo7bOVVVpVmzJtjtkVRWVoaC1MGcjDYJIU4Ai5mg1Yo/oGOYrZitEehBA5/HQ1BTUUwqimJCURRMioXECBsxUbE0yWpKjdtFXv52cjbmkJ+fj8fjITd3OxsDm6lxu6moKCchPo7o6CgiLCaSUlOpdrnYmLcDW4QVR1Qs5wwfSXxCMikpKcTGxmKNsKGZzCgmU+2cIVVDVVVUQDUUUAyC6PjMZpS4OKotau3kJ03DpalYjNpJ5iaTGYIGiqaiKCq6olLbt2agYQAGJsNHZLSV+C4N6NzegiXChLtGodJvIrlBI0orrZTXKGjmaHTNgtURRWJaKkFTkG3lVkpcZpTIZKpc5eh+iIyMJDXeQaRdwWQ1EWE3vEYy8AAAIABJREFUY45QMWkKZsWMigkFM6gqhgl0wyAYZUKPi8Fl3lW71pao1yRInYIMw6CiopK1a9fRoEFtKNmWu53mzZqEAsuJEAgEWL8+B5/XR0pK0mGPPxltEkKcADUuzDGO2uEyk0pAq/0lj6Zhtlio8XkxDB1VN8DQQQGTyURcXBxxsTEkpSTRvEVL/H4/fr+fispKKioqKCrcRX5+Hj5v7euDAT8mk5XY2HgyG2TStEljmjZrgcUWRYQ9Crs9ErPZjKpqe4KUhqKpoGqYzWYMXUdTNTQUVEXFZNKITk3GlxSN266iWUzo6XHUxEbg14LUaDpuw0AzKbWxyTBQDTDVXgK6AboSJKhXguLFbjMwWQxQVOLiTKSkqPyybCEaZQT9uzCbamjdsiG9erTH6TLh9G5jZ9E2KipKUFU/mY3SadmqKQ0y0zFrAdAUTBYV1aKgqQqaoaIaGhgmdEVFVw0gSGXADfExWFISqZ38Jeoz+Q14CvF6vbz08iQURSEy0k6L5s3o2bN2Em2Np4aUlOTQsR988BG7S0owDJ3xl1xESkr4ewL+8ONP/PTzL5hMJpKTkxh3wRhstt+3yPnu+/l89/18AOz2SG668boT3iZRNwKBgATjEygQOEV+aXbpzFkREbVrMXVojSnORqpZwWcoBAyDOLOGpiqYFQXVMND1ILquo+zZF05RwcBAVVUCgQAejwdVVdE0lWDAj6KA2WSixu3C56mhvLSExIR4Iu02dAMMLQJVqw1QtftpKiiqGgpSXn8As9mCHgyiAZphoBmgKSqYzFx8x98gMQkUjSEFnSE9AZo0wmxWsSoaoNXOoUJBNRTMQWpTlAKoEFB10IJoJj+BQIAan0psahp/uzWdIUOHYQP0mlIspjyyG9pIirfi9UXQc0AE5U4zZpOGEqjErpTQukkCDosfPeDGHGFB0UBXg6gKaIaKYmgYugkdCKoGJgLYLBqtGjWBNoXQRLYtqu/kJ+Yp5I9zpP7MZrPjdDpDjy+99GIA3pz8DrU/HcK3d47UwQwaOOCA5SeyTeLkM5nMeL1eCVInkMfjqR1+qmtN02u//sC65+toWQB71IHL7HsWkE/LPro6DzltyBENWY0OWnwk1/DH73CzBuY9L4pLU+iYtneoLXnP1+8a7rMEmR1IO4KzHUR0FrQI/+Xi1CG3C9ShQKB2LZcjkZWVycZNm4/5L9qjOefJapM4NVisFjweb10347Tm8XixWC113QwhxHEkQeok+vnnX/jl10XU1LhZvWYtqqKQmJB4RK9t07oVUVEOpk2bzq7CQjweDzvz8qip8QC13e2LFi8lLz9/n9e5XG4+/OgTdhfvxlldzYacjaENXY/VkbRJ1B/2SAfl5eXoun74g8VR03Wd8vIK7JGOum6KEOI4kj78k6hdu7bM/nYOixYtxm63M3z4sCPeiV5VVS64YCwLF/7KV1/NxO12ExMdzVm9upOcnIxhGKxZs5adO/NoMPb3u+Zq51o1ZdoXX+LxeGicnU2XLp2Pqt1/nCMF0KRxE8aMGXnYNon6xWKxYrZYKSjYFbrJQRw/eXkFWKxWLJZwBtCEEKcqxTCME9J1UOmsORHVikPYXbybpcuWM3z42XXdFFGPle4uxmw2kZaWIvOljoNAIMCuXUX4/QESko7PHxgxUbbjUo8Q4tjJ0N5posrpZN738+nWrWtdN0XUcwlJyeiGwZYtuZSUlOJyuQgGg3XdrHolEAjgcrkoKSlly5ZcdMM4biFKCHFqkR6p04TX5yPgDxAZaT/8wUIcAZ/Pi9tVjc/rIxDw13Vz6h2TyYzFasEe6Tjuw3nSIyXEqUP67U8TVosFq0XuBhLHj8Ui83mEEOJwZGhPCCGEECJMEqSEEEIIIcIkQUoIIYQQIkwSpIQQQgghwiRBSgghhBAiTBKkhBBCCCHCJEFKCCGEECJMEqSEEEKccO9PmcriJcvruhlCHHcSpIQQQgghwnTCVjZXVQVdPyG7zwghxBlLVZW6bsIxq6py8tY7HzCgfx+WLltBZUUVvc/qQXJyEj/8tJCKiko6dmhHv75nAeB0VvPjT7+Qs3EzwWCQ1q2aM3zYEFRVxTAM5n23gA05m3C73fh8tdsZXXLxOLIbNWL+gh9ZuWotJpNGl84dOKtXDwBmfD2b6Ogoyssr2FVYBMDYMaNITk6smzdF1FsnLEiZNBWfLhudCiHE8WTSTo+BBKezmupqF1dfeSn5Bbt4590P6dK5A5eNv5CqKicTJ71Jh/ZtiImJwef3k5GRxpDB/QkGdV5/4x1ysjfTqmVzlq9YxY6dedx4/dUEAgEmv/0B5583kpSUJL6f/wPFxSXcfNO1GLrOex9MJS01lezsLABWr1nHJReNIz4+jjlzv+eHnxZywdjRdfzOiPrmhP2PtJhlGz8hhDjeTqefrd26dkZRFDLS01AUhS6dO6KqKrGxMUQ5HJSVVQCQEB9Hh/ZtMQyDoqJiomOiKdzTi1RYWEyjrIaYTCYiIiJIS00J9TAtXbaCoUMGYLVYiIiIoFPH9mzavDV0/hbNmxIfHwdAZmYDysvKT/I7IE4HJ+x/pKapWMwaPr/0SgkhxPFgMWtop0mP1B8pioKi7DtkqWoqgUAAAK/Xy4yvZ+N215CVlYmmqvj3lDVq1JCff/6VPr174ff72Lkzn149u1Hj8eDz+fn8ixmhOgOBQKg36s809ffzCXE0TuifNrYIC7rhIxCQMCWEEMfCZNKwRVjquhl1Yu53C4iKjmLcnmG3mdVzQmWNs7P4+edf+eSzL/D7/Zx99iBSU1PQdR2LxcyY884lKUnmPYkT54T/aRNps2Axayf6NEIIcdqymDUibWdmiAJwVbvRVBVdN8jLy2dr7rZQ2br1OaSmpnDpJX/hqivG07JFMwBUVaVTxw7Mmj0Pp7MawzAoKCgMTUYX4ng5KYPttggLFrOOzx8gENTlbj4hhDgMVVUwaSoWs+m0HM47Gn379OSL6V+zdNlKWrZoRts2rfD5awNRdqMs5sydz/oNOQCYzRYaZmYwcuRwBg/qx/cLfuKNye+BYZCamsI5w4dgscTU5eWI04xiGIakGiGEEPXS9K++oUnjRrRt0woAt9vN2+9+yIB+vWndumUdt06cCc7sP3OEEELUa6UlpQSDv8/DrXJW4/V4SUlNqcNWiTOJ9EgJIYSot4qKipk95zvc7ho0VcVmt9Gvz1k0bNigrpsmzhASpIQQQgghwiRDe0IIIYQQYZIgJYQQQggRJglSQgghhBBhkiAlhBBCCBEmCVJCCCGEEGGSICWEEEIIESYJUkIIIYQQYZIgJYQQQggRJglSQgghzghvvvU+K1etqetmiNOMBCkhhBBCiDBJkBJCCHFKMgyD47uLmeyIJo4/U103QAghxOnJ5XYzd+58Nm3eitVqpXu3TvTo3pWCXYX8+NMv7NiRh8Vipm+fXnTu1AGAGV/PJiU5idztOygq2s0NE66itLSMmbO+xVXtpsrpBCAjPY3LL7uI3xYtZcXK1bhdbtLSUzn/vHOJjIwEYMfOPGbPnkdFZRXZ2VkEAsFQ25zOan786RdyNm4mGAzSulVzhg8bgqpK/4I4OhKkhBBCHHeGYfDx1GkkJiRw61+vx+/zU1pWBoDbXUP3rp25YOxodhUW8d77H9OiedNQAPrx51+49JK/kJKSjK7rTP30c84eOohWLZuzaNFSduTlM2b0CBRFQVVVrrjsYiIjI/l02nR++vlXhp09mCqnk48+/oz+/frQrWtn8vML+PSz6aH2+fx+MjLSGDK4P8GgzutvvENO9mZatWxeJ++XqL8kegshhDju8gt2sXt3KecMH4LVYsHhiCSrYSYATZtkk52dhcvlpsZdg9lspri4JPTali2akZKSDEBNTQ1OZzXNmjYGoEnTxuTnF2AymdA0jV49u2G32ygsKiIy0s6uwmIA1qxZT0pKMj26d0FVFTIzM4iOiQ6dIyE+jg7t22IYBkVFxUTHRFNYWHSy3h5xGpEeKSGEEMeds8pJVJQDs9m8X1lxcQkzZ83BEWmnQYMMTCYNn98fKrdYLKF/2+12EhMTWL8+h3bt2rB+fQ7paalAba/Xgh9+ZtPmrWQ3aogC+H2+2vNXVxMfF3fQ9nm9XmZ8PRu3u4asrEw0VcUfCBynqxdnknofpLYXlFFcVg2HmZCoqAodWmRgNmknqWVCCHHmiopyUFXlxOfzY7HsG6Y+mzadQYP606J5UwCWL1950HoURaFd29YsW7GKZStWERsTw+jRIwBYtz6HrbnbuOaqS9E0jbXrNpCfvwuAaIeDLbu3HbTeud8tICo6inFjRwMws3rOsVyuOIPV6yD17c8b2Lxj9xEfv6OgnFED20qYEkKIEywjI524uFhmzZ7LsGGDCfj9bN26nXbtWlPtcqMAuq6zdu0GKquch6xr0eJlXHPVpcT8YWgOwOVyYTKZCAZ1qqurWbFydaiseYtmfL/gJzbkbKJpk2xyNm6mpKT099dWu0lIiEPXDQoKCtiau43me4Ldtm07WLN2PSPPHXb83hBx2qq3Qcrp8oRCVFK845DhyF3jo8JZQ2FJFdO/W82oAW2xWurtpQshxClPURQuuXgc38yay4svTsJmt9Glc0cAzh46kBkzZ6OqKl27dKJRVuYh62rWtDGvvf7W3pqJjo6if9+zaN+uDRs3buH/XpxIWmoqHTu049ffFgO1c6DGjB7Bd9//wJdfzaRtm9Y03TPPCqBvn558Mf1rli5bScsWzWjbplVoeLGispK8/AJ0XZe7+MRhKcbxXaTjpCkpr2bqrOUA/GVYJ5LiHQc9du3mXSxYvDn0ODEukvMGtZcwJYQQp7iSklKmfzWTq64Yj6Zp6LrO0mUrWbpsBTdef3VdN0+IM/OuvZJyF5/PXYnH6z/8wUIIIepMRWUVwWCQQLB2DSjDMNi9ezcZ6Wl13DIhap2xXTJllW6mzV3JmMHtsUdYDv8CIYQQJ12Txo3Iy8tn8uT3MJlqf2U1btyI/v1613HLhKh1RvZI7VVRVcO0OStx1fhO2jkvHn8tr0x846Sd70RwuVx8Mf1rrrjyRoaePWa/cl3XefGl1xgwaCQDB4/itf+9dYBawnf7Hffz8CNPHdGx/QaMYObMb4+47t8WLaVz1/44ndUAvPPuh5w/9jICx3Bb9PLlqxg67Hw2bdoSdh1CnKkURWFA/z7cdOO1TLjuSiZcdyWDB/UPhSoh6trpEaSUwxUf/ICqag9fzD34rbdif/n5u5g1ex7VLtcBy9//YCrfzJrLpInP89IL/+bTT6fz2bQvT3Irj48mTbLp0aPLMf3QTkpKpEf3LsTHH3xNG1G/FBUVM+m1yYfcB84wDCa9NlkWeRTiNHdaRPrD5CjsNgvpyTH7Pb/3br4ql+fENOw01bx5UyZNfJ5PP5vOa6/t29tkGAYfTPmEW26+jpZ7tlq49toreP/9qaH1Wk5lf/5e6tO7J3169zymOhs0SOdfjz9wTHUcrYqKSmbMnM2uXUXY7TYG9O9Dm9YtAfD5/Hw9czZ5eQVoJo3eZ/WgQ/u2lJWVM3HSm/vV1blTB0acM3S/52tqPHwzey6bN2/FarXss1/ak08/z4RrryApKRGA5StW8/PCX7n26sux2SJ48unnsVgsKApYzBZSU5M5e+hAYmL2/396Kvr0s+m8Ofl9CgoKefSRe1GUfb9zDMPg4UeeYsbXs9F1g5tvuraOWiqEONHqbZD649+Bh7vvsFFGPI0y4vd7fu/dfHV53+Ltd9xP27atcLtrmPb5VwSDQS679EIuGHceTz71PL/+upi09FQee/Q+WrZoBkBlZRXvvPshs7+dR1lZBc2aNubBB+6iWbMmAAQCAV56+X98PfNbyssr9vmredmSBUDtENaLL71Gbu52sho24G+33kCvXt2P+Xry83exe3cJXbt0Cj3XtUtHnvnPC5SVlR9Rr8zWrduY/Nb7LPxlEX5/gB49uvDQA3cTHR11wOMLCgp54qnnWLlyNbaICEaPHsH1E67EarXud+xddz9EZWUlr058Hk3TyM3dzr//8wKrV68lK6shffv02uf4j6dO4623P2DWzM8AmDLlE35bvIxRI4cx6bW3KCwsokOHdjz5rwf3W+Nmr81bcrnwoquY/vkUMjMzyNm4mauuvpnHHrmXt96Zws4deSQlJ3LXHbeGPoMj+QwP5bv5P9Kta2daNG9KXn4BUz78hPS0VOLiYvnu+wWYzWb+essEnM5q3pj8HlkNM4mPj+OB++4M1eF2u3nrnSn07t1jv/oNw2Dqp5+T3SiL0SOH43bXUFx84DXdtm3fwffzf+CKyy7GZosIPX/l5ReTlJSI1+dj5sxvmfnNXC65eNxhr+1UcPNN11FSUsb0L2fi9Xp56smHQ7fJB4NB7rv/MebMnc95o0dw043X1HFrhRAn0ukxtFfPvfHme6SlpTD32y+49a/X8+qkydxy611cdtmFfDfvSzIzM3j63/8NHb9q9Vqqqqp4/NH7mfrRW8TGxnD/g/8Klb85+T2+++4H3p48kYU/zeb8MSPp1rUT77/7PwCWLVvJvfc9ynXXXM6MLz9iwnVXcvc9j5CXV3DM11JYVLvPVUpKUui55OTafxfu2QPrcObOW0B2dhYTX36W1//3AuvW5TDptckHPf6pp58nIsLKV9M/YuIrz2GxWA64LcU7737I+g05PPPvx9A0jbKycq67/m9E2u2889ar3P6PW1iydPlh2/fLL4v46edfeXvyRKZ/PoXc3O28/8HHR3Rte3m9Xr6aMYsX/vsU87+fwbkjzubOux+ksrIKOPxneDhjx4wMrRrdICOd5KSk0BCT01lNZmYGilK7Hk9yUiKVVVX71TF33gK6d+tCTPT+ATE/fxder5d+fc/CZDIRHR21zxo9e5WWlfP55zM4b/QIEhMTDthWq8VC69YtKa+oOKJrOxUoisJDD97NiHOGMmfufO6860ECgQCBQIC//+Ne5sydz4hzhvLQg3fv11slhDi9SJA6BQwa2JdxY0ejqiqjR9VufXDZ+L/QoX1bzGYzI84Zyvr1G0O9En379OKB+++ic+cOZGZmcM01l7F581bKy2t/Ea1bv5E+fXrRoEE6VquVMeedy8pVa2jVqnao7dVJk7nu2isYOLAv8fFxDBrUj7N6dWPed4fv6Tgcr9eLqqpo2u8LpO7dHsLr9R5RHddPuJJrr7mcli2b07JFM8aNHcWixcsOenxJSSmJCfHExcXSrFkTbrj+qv0W0Vu8eBlvTn6P/z73JLGxtcNHn3z6Baqq8tSTD9G0aWO6dunI9ROuOmz74uNjeeShe3A4IklIiKdP756sW7/xiK7tj+755z9ISkpE0zSuunI8FouF2bPnAYf/DI+GruuUV1SGrrt79y4sWrSU3btLqKpy4vF697uVvLKyis1bttKpY7sD1rlj507S09KYNXsuL73yOu+9/zG7d5fsc0yNx8PHU6eRlZVJk8bZB21fTY2HFStX06xpk6O+trqkKAqPPXofI0aczfwFP3HHXQ9yx50P8PPC3xg1cjiPPXqfhCghzgD1dmiPermM6IH9OXRYLGa0P6zU7nA48Pv9eDze0NDIunU5zPh6FitWrsG5Z3uFsvJy4uJi6d+vN2+9/QFXFl5MQkI807+aSdOmjUM/1Neu28C69Rv26eUJBoOkH4d1WSIirOi6TiAQCE3Q9u7ZRDQiYv+htgPZuxHp3HkLyNmwiYqKCoK6ftDj77zzVu655xHWrtvAhRecz/DhQ/bZ26uwqJjn/vsKTRpnh4Y/oTasdOnScZ8NUo/EHz8vAIcjkurq6qOq40B1ZjbIYOeeXsHDfYZH47dFS0mIjyNtz0aviQnxWCOsfPX1LCoqqhg8qN9+k+nXrc+hTeuWB51k73K5ydm4ibFjRjHs7MEsWryMzz7/ap8FEr/86huSk5LYvGXrAYd1p3z0KYqi4HRWExXlYEA9vJ1dVVUee+RefF4fc+fNB2DI4AE8/NA/ZUVsIc4Q8j+9HtnbIzV16ufc8tc7ad26Ja+9+l9eevGZPeW1xw0fNhgMg9v+cS+jx4ynsqKKZ595fJ96/nnX3/lh/szQ188/zua2v914zG1MT6sNY0VFvw/jFe0Z0jvSoHbPvY/w6qTJjDx3GB+8/zo33HD1Ie+O6tK5IzO++phxY0fz9jtTuPKqG6moqAyV/+/1tznnnKHszMvn6z8shaCpKsYhAtrROB7z7KpdLlS1Nigd7jM8Utu27+DX35YwetQ5oec+mjqNgf37cs1VlzHmvBF8P/9HduzI2+d1ORs3k9kg46D1mkwmWjRvRnZ2Foqi0K1rZ8rKyqip+f3GjcSEeC4Ydx4dO7bn2znf7VfH+Isv4G9/vYF7/3k7w4cN5r0PplJaVn7U1yiEEHVJglQ99N77H3PddZcz8txhREU59gsZH338GT16duXjDyfzzdef8J9nHiM1NSVU3qpVc+Yv+OmEtC0tLYW0tBQWL/l9rtGSJctp0jj7oJOx/6iwsIg5c+fz6CP30rNHVywW8xGFFKvVyvljRvLRh2+yu6SU7+f/GCrr3bsnd/zjFm796/X89/8mUrWnBy8rK5M1a9ej/yFM6XtWTz7ZCgoK2bkzn1atWgCH/wyPtM7Pv/iaceePCg3rVVZVUVVVO0cKoHF2Izq0b8v6DTmh1+m6TkFBwSHPl5iYQNEfJpcbhg4o+3wvDhzYD1VV6N/3LAp2FbFx4+YD1ASqqtC8WVMSE+LJy8s/qmusa7qu89DDTzJ33nz69ulF3z69mDtvPg898tQ+31dCiNOXBKl6KC4uluUrVlNUvJslS1fw8KNP71NuGLBlcy7bd+yktLSMysqqfX6o33j91fzw40Jeevl/5OUVsHXrNl6Z+AY+35EtTFpV5aS0tAyXy41uGJSWllFaWhYqv/yyi5n02mTWr89hzZp1TH77Ay6//KIjqjsqyoGmafzyyyKKi0v4ZtZc3pz87j7HmC1mysrK8fn8VFZV8bfb/snChYtwOqtZtXrdnsnUDULHDx7YD0VRGD3qHNLTUnnxpUkAjBs7muLiEp548jm2bM1l4cJFPPv8y0fUzkO57vq/cePNtx/2uBdemsSatetZvXod/7znYTIbZDBoYF/g8J/h4RQWFvHR1GmMGjmchg1/fy8i7XYMw2BDziYAfD4fudu2ExcbGzqmoqISXTeIitp3/8rfFi1h8Z65as2bN6WqysnqNeswDINff1tCenoadrstdLy6ZxjSarUyaGBfvp37/QEXNt3bnsKi4qMOi3Vpb4ia+c0cBvTvw3PP/ovnnv0Xvc/qwcyZ3/LQw08esidVCHF6qL9zpM5gd999G489/gznjRlP+3ateeC+O7j62ltC5SPOGcqbk9/j4kuuDU3wtlgsXHDBedx5+1/p3r0LL73wb16dNJkpH35KYmICffv0xOv1HdF8obvveZhFi5aGHg8ddj4Avy6cg8Vi4aILz6e0tIybbrkDRVG4dPxf9hlaOpTIyEgevP8uXnn1Dd6c/B6DB/XnwQfu5oE/3JU4ZPAAHnn0KebOm8/wYYPp3783z/33ZXbuzCcxMYG/33YTXbt03K9uRVG4++7buOrqmxk16hw6tG/Ls/95nBdenMSMr2fTpk1LHnzgLq659q9H1NaD0VQV7Qjmx3Ro14bHHn+G/PwCunXrzLPP/iv0/h/uMzycqZ9+gcdTw6efTQ+Fl6SkRG6YcBWXXnIBs76dx5w536OoCm1at6Rr19+Xq3C73ZhMpv3ufCwq2h2a92O1WLjkorHMnDWHWbPnkZKSxPnnnXvwa23flmXLVrLwl0X063sWAO+89xGKAsGgTmJCPGPHjCQlOemgdZxKDMMIhaihQwbss/zB//33Ke67/zFmfjMHs9nMww/9s45bK4Q4oYx6qqjUabwy5QfjlSk/GMWlzrDqWLOpIFTH6WT8ZROMmd/MCT0OBALGjK9nG5269DMqK6vqsGX1zwdTPjHOHXXhMdWRk7PJ6NSln1FQUGgYhmFs+NPjAznUZyjq3osvvWZ06tLPePjRpwxd1/cr13XdePiRp4xOXfoZE199sw5aKIQ4WaRH6jRjGAa7dhVSWFiE3+/HbDZT7XKxZMly2rRuud9wzZ/d8tc72bI194BlTRpn88rLzx5T+050/ceLz+envKKCpUtX0PAPw4RHq7i4hIW/LMJmiyAxcd9FYY2DDPsc7jMUde+CcedhtVqZcN0VB7yTUlEUHn7on6SlpTJmzMF76oQQ9Z9iHOyn+SmuuKyaT2fXTmj+y7BOJMUfOiAcyN6VzQFuvqTvcW1fXVq5ag0TX32TLVtyURQFu91G/369uX7CVTgckXXdvHph6bIV3PLXu0hJSeKJxx+gbdvWR12Hx+Nh+IgL0DSNW266jrFjRwG1d8RdMv5aZnz5MenpqQd8rXyGQghRP0iQOg2DlBBCCCFODrlrTwghhBAiTPV2jpQ94vc7ij6Zffj90Q4l0nZ0K1sLIYQQQkA97pFy2K00bXh8bpXu0qbhcalHCCGEEGeWejtHaq9t+aXsLgtvnzNVVWmYHkdS3NHPrxJCCCGEqPdBSgghhBCirtTboT0hhBBCiLomQUoIIYQQIkwSpIQQQgghwiRBSgghhBAiTBKkhBBCCCHCJEFKCCGEECJMEqSEEEIIIcIkQUoIIYQQIkwSpIQQQgghwiRBSgghhBAiTBKkhBBCCCHCJEFKCCGEECJMEqSEEEIIIcIkQUoIIYQQIkwSpIQQQgghwiRBSgghhBAiTBKkhBBCCCHCJEFKCCGEECJMEqSEEEIIIcIkQUoIIYQQIkwSpIQQQgghwiRBSgghhBAiTBKkhBBCCCHCJEFKCCGEECJMEqSEEEIIIcIkQUoIIYQQIkwSpIQQQgghwiRBSgghhBAiTBKkhBBCCCHCJEFKCCGEECJMEqSEEEIIIcKJI2qvAAAKGklEQVQkQeoYeTweli9fVdfNEEIIIUQdkCB1DAzD4MGHnuSpp59H1/W6bo4QQgghTrITGqSefe4lOnftT+eu/enafSBnDx/Lw488RVHx7uN+rt8WLaVz1/44ndUAfDBlKuedPx6/339M9a5atZahw85nQ86m/cpemfgGW3O3MfGV51DVE/NWOp3VdO7an4ULF52Q+o/U8Xo/hRBCiNPJCe+RateuNQu+/5rZs6bx1JMPsX3HTm666XaCweAJPW/j7Eb06N4Vs9l8TPUkJibQo3sXEuLj9nneMAyCwSCvv/YCiYkJx3SO+uB4vZ9CCCHE6cR0ok+gqRpRUQ4AEuLjeOLxBxh13iUsW76Kbl077Xe8ruth9e4of3rcq1d3evXqHk6T95Gensq/Hn9g//MpCrf97cZjrr8+0HX9uL2fQgghxOnkpM+RSk9PQ1VVSkpKAbj9jvt57/2P+b8XXqVPv+G89fYUAPILdnHb3++hd99hjDrvEt57/2MMwwjVk5u7nRtvvp3efYcx/rIJLF22cp/zTJnyCeeOunCf55YtW8m1E26lV++zOefcv/DpZ9MPW5azcTOdu/anoKAwdGxeXgF/v/1e+vQbztBh5/PiS6/h8/0+5HX7Hffz1tsf8Pob73DOiAvoP/Bc/v3MC6H2V1RUMnTY+bw5+f2w3kO3u4Z/P/MCg4eeR9/+I/jnPQ+ze3cJADNnfkvf/iPwer2h43VdZ+iw8/lm1lygdoL8v595gYGDRjH07DH864n/4HK7Q8f3GzCC3xYt5bZ/3Ev3noNZvWbdfu/n1q3beODBfzFoyGj69h/BnXc/SFWVM6zrEUIIIeqrkx6kCgp2oes6SUmJoefeffdDFEVhzuwvuPyyiygvr+Caa/9Kp07tmf75FJ568iE+/Ww633wzB4CysnKuu/5vRNrtvPPWq9z+j1tYsnT5Ic+7bNlKbrjpH3Tu1J6pH73F/ffdgcfjPWzZn5WWlXP1NTdjtVh4e/JEnnj8AebM+Z4HH35in+P+9/o7REVFMeOrj3nh/55m6ief89uipUBtsAkGg+j60Q9vGobBP26/lyVLlvPsM4/z5usvUu1yc+2EW3G53QwZMhCTSWPedz+EXrNixWpcLjcD+vfBMAxuv+N+KioqefedSbz91kR2l5Tx3HMv73OeRx59mpEjzubHBTNp17b1fu2YO28B2dlZTHz5WV7/3wusW5fDpNcmH/X1CCGEEPXZCR/a28swDPLyCnjiqefIaphJxw5tQ2VJyUn7DJO99fbntG3TiquuHA/UzlO6dPyFzJo9jxEjzuaTT79AVVWeevIhLBYLANdPuIqbbr79oOd/ddJk+vU9i1tungBAZmYGfXr3PGzZn3388TRUTePxxx7AYqmdL/Tww/dw/Q23MeG6K2naJBuAwYP6cfFFYwHo2KEdWVmZrF+fQ88eXYmPj+O7uV8e/ZsILF68jMVLljP147dD53r6yYcZMfJCZsyYxUUXjmX0qHP46qtvGHHOUADmzptP/369sdkiWLJ0BTkbN/PtrGlomgbAbbfewOVX3sCDD9yFotQOkg4dMoChQwcetB3XT7hyn8fjxo4K9XgJIYQQZ4oTHqRWrV5L777DCASCGIbBgP59eOShf2Iy/X7qZk0b7/OaNWvWs3jJMvoNGBF6ztANshs3AmDd+o106dIxFKKOxNp1G7jzjluPuuzP1q/PoWPHdqEQBdC5U3tMJhPr1m4IhZu9IWUvh8NBdbXriNt70PNv2Eh8fFzoPABRUQ5at2rO2rUbABg3djRjL7icoqJikpOT+O77H7jvnjsAWLt2PZWVVQwcPGqfeoPBIG63m8jISACa/ukz+TPDMFjww8/MnbeAnA2bqKioIChLQAghhDjDnPAg1aJFM55+8mFMJhPJyYn7BYyDOXvoIB579L4DlmmqinGUv7T33mV3tGUHsrfX5s/PGRgHOHrf8xytvetTKerv59z/7KCoaqj+hg0b0LVrJ76e+S3du3XG6/Fx1lm/TxRPTk5i5oypR92WP7rn3kfYtn0n//j7zTz0wN18+dVMXpn4xjHVKYQQQtQ3J3yOlNViITMzg7S0lCMOUa1ateDX35bg8XgOWJ6Vlcmatev3WQRTP0wQatGiKb/+tvioy/6sZcvmrFyxep/1lFbsedymdcsjquNwtm3fEfr3rsIigNDyCy1bNqe0rJytW7eFjnG5XKxfn0ObNq1Cz10wbjSzZs9jwQ8LGTykf6gHsFXL5hQWFh1wXawjVVhYxJy583n0kXvp2aMrFouZMDKiEEIIUe+dkiubX3Th+ei6zl13P8TGjZspKCjko4+nsWnTFqB26Kq4uIQnnnyOLVtzWbhwEc8+//Ih67zu2iuYP/8nXpn4Btu27eDX35bw2OPPoOv6IcsO1Daf38+DDz/J5i25LF6ynEcee5rBg/ofdjhsr/LyCgYNGc0bb767X9lvi5Zy2eXXM+Pr2axatZaXXnqNjPS0UN3dunaic+cO3HPfo6xYuZqNGzdz732PER0VxaiRw0L1DBzQl4qKSqZ9/hXDhw0JPd+tW2e6dunIPfc+wm+LllJcXML3839kzpzvj6jtUDuUqGkav/yyiOLiEr6ZNZc3J+9/LUIIIcTp7pQMUgkJ8bz15itoJo1rJ/yNK6+6kaVLV4R6VRo0SOfZ/zzO8hWrGH/pBN6Y/C4PPnDXIevs07snzz37L35e+BsXj7+GJ554ltatW6AoyiHL/iwxMYHJb76M2+Xmyqtu5L77HmXggL488a/915o6FE3TDlh/j+5d+PttN/Haa29x/Y23UVlVxX+eeSy0tpaqqrzwf0/TsUM7br/jfq697lYsVgtvvPFSaH7T3vrPGT4Es9lE507tQ88risL//fdpevbsxgMPPM64v1zBB1M+wR5pP+K2R0ZG8uD9d/HRx9MYe8Fl/PrrYh584O6jun4hhBDidKAY4UzcEfXCtRNupXOnDtxy83V13RQhhBDitHRK9kiJY5OfX8Bbb3/A5s1bGX/JBXXdHCGEEOK0ddLWkRInR3FxCeP+ciVpqSm88tJ/iIuLresmCSGEEKctGdoTQgghhAiTDO0JIYQQQoRJgpQQQgghRJgkSAkhhBBChEmClBBCCCFEmCRICSGEEEKESYKUEEIIIUSYJEgJIYQQQoRJgpQQQgghRJgkSAkhhBBChEmClBBCCCFEmCRICSGEEEKESYKUEEIIIUSYJEgJIYQQQoRJgpQQQgghRJgkSAkhhBBChEmClBBCCCFEmCRICSGEEEKESYKUEEIIIUSYJEgJIYQQQoRJgpQQQgghRJgkSAkhhBBChEmClBBCCCFEmCRICSGEEEKESYKUEEIIIUSYJEgJIYQQQoRJgpQQQgghRJgkSAkhhBBChEmClBBCCCFEmCRICSGEEEKESYKUEEIIIUSYJEgJIYQQQoRJgpQQQgghRJj+H+LNccKA2t5RAAAAAElFTkSuQmCC;imageBorder=default;strokeWidth=2;" vertex="1" parent="1">
          <mxGeometry x="840" y="269.4" width="137.42" height="81.2" as="geometry" />
        </mxCell>
      </root>
    </mxGraphModel>
  </diagram>
</mxfile>
